<?xml version="1.0" encoding="utf-8"?>
<!-- Generator: Adobe Illustrator 27.4.0, SVG Export Plug-In . SVG Version: 6.00 Build 0)  -->
<svg version="1.1" id="Layer_1" xmlns="http://www.w3.org/2000/svg" xmlns:xlink="http://www.w3.org/1999/xlink" x="0px" y="0px"
	 viewBox="0 0 1900 919.1" style="enable-background:new 0 0 1900 919.1;" xml:space="preserve">
<style type="text/css">
	.st0{fill:#02462F;}
	.st1{fill:#0C563D;}
	.st2{fill:#999999;}
	.st3{fill:#FFFFFF;}
	.st4{fill:#0D6A4B;}
	.st5{fill:#82CE71;}
	.st6{fill:#2DA973;}
	.st7{fill:#0B885A;}
</style>
<g>
	<polygon class="st0" points="819.6,317.7 809,452.4 810.5,454.1 945.1,307.8 	"/>
</g>
<g>
	<path class="st1" d="M809.1,307.2L937,297.1L812.5,163.3C728.2,63.3,602-0.3,460.9-0.3c0,0,0,0-0.1,0c0,0,0,0,0,0
		c-0.3,0-0.6,0-0.9,0c-3.2,0-6.4,0-9.6,0.1c-1.5,0-3,0.1-4.5,0.1c-2,0.1-3.9,0.1-5.9,0.2c-1.8,0.1-3.6,0.2-5.4,0.3
		c-1.6,0.1-3.3,0.2-4.9,0.3c-1.9,0.1-3.9,0.3-5.8,0.4c-1.5,0.1-2.9,0.2-4.4,0.4c-2.1,0.2-4.1,0.4-6.2,0.6c-1.3,0.1-2.5,0.3-3.8,0.4
		c-2.2,0.2-4.4,0.5-6.7,0.8c-1,0.1-2,0.3-3,0.4c-2.4,0.3-4.9,0.7-7.3,1c-0.6,0.1-1.2,0.2-1.8,0.3C184.6,36.6,23.5,205.1,3.4,414.9
		l99.4,84.9l1.9,1.6l98.8-84.3c12.6-73.9,56.3-137.3,117.1-176.1l0,0c20-12.8,41.8-22.9,65-29.9c0.5-0.1,1-0.3,1.5-0.4
		c2.5-0.7,4.9-1.4,7.4-2.1c0.8-0.2,1.7-0.4,2.5-0.6c2.4-0.6,4.7-1.2,7.1-1.7c0.9-0.2,1.7-0.4,2.6-0.5c3.9-0.8,7.9-1.6,11.9-2.2
		c1.6-0.3,3.2-0.5,4.9-0.8c1.7-0.2,3.4-0.4,5.2-0.7c1.9-0.2,3.8-0.5,5.7-0.7c1.6-0.2,3.2-0.3,4.8-0.4c2.2-0.2,4.4-0.3,6.6-0.5
		c1.4-0.1,2.7-0.2,4.1-0.2c3.5-0.1,6.9-0.2,10.4-0.2c0.2,0,0.3,0,0.5,0c76.9,0,146,33.3,193.8,86.3l143.8,154.9L809.1,307.2z"/>
</g>
<g>
	<path class="st2" d="M2.3,428.8c-0.7,10-1,343.2-1,343.2h0c0.4,23.7,19.5,42.8,43.2,43.3c0.3,0,0.6,0,0.9,0c0,0,0,0,0,0
		c0,0,0,0,0,0c24.1,0,43.7-19.3,44.1-43.3h0V502.9L2.3,428.8z"/>
</g>
<g>
	<path class="st3" d="M230.2,176.7l-0.7-0.9c-4.5-6-3.7-12.2,2-16.5l0.5-0.4c5.7-4.3,11.9-3.4,16.4,2.6l0.7,0.9
		c4.5,6,3.7,12.2-2,16.5l-0.5,0.4C240.9,183.6,234.7,182.7,230.2,176.7z M244.1,166.1l-0.6-0.8c-2.4-3.2-5.3-3.7-8-1.7l-0.4,0.3
		c-2.7,2-3,4.9-0.6,8.2l0.6,0.8c2.4,3.2,5.3,3.7,8,1.7l0.4-0.3C246.2,172.2,246.6,169.3,244.1,166.1z"/>
	<path class="st3" d="M248.9,153.9l3.6-2.4c0.3-0.2,0.6-0.1,0.8,0.2l0,0.1c0.2,0.4,0.5,0.3,0.7-0.1c0.5-1.5,1.6-2.8,3.4-3.9
		c4.8-3.1,9.5-2,12.7,3l0.3,0.5c3.3,5.1,2.4,9.7-2.3,12.8c-1.5,1-3,1.5-4.5,1.5c-0.4,0-0.6,0.3-0.4,0.6l3,4.6
		c0.2,0.3,0.1,0.6-0.2,0.8l-4,2.6c-0.3,0.2-0.6,0.1-0.8-0.2l-12.6-19.4C248.5,154.4,248.6,154.1,248.9,153.9z M258.3,158.6l0.2,0.3
		c1.5,2.3,3.5,2.8,5.8,1.3c2.3-1.5,2.7-3.4,1.1-5.8l-0.2-0.3c-1.5-2.4-3.5-2.8-5.8-1.3C257.2,154.3,256.8,156.3,258.3,158.6z"/>
	<path class="st3" d="M273,149.7l-0.3-0.5c-2.9-5.2-1.5-10.2,3.9-13.2l0.2-0.1c5.2-2.9,10-1.5,13,3.9l0.6,1c0.2,0.3,0.1,0.7-0.2,0.8
		l-11,6.2c-0.3,0.2-0.4,0.5-0.1,0.8c1.3,1.4,2.8,1.4,4.8,0.3c1.4-0.8,2.1-1.6,2.2-2.4c0-0.4,0.1-0.6,0.4-0.8l4.2-2.4
		c0.4-0.2,0.7-0.1,0.8,0.3c1.3,3.6-0.5,7.1-5,9.7l-0.3,0.2C281,156.4,276.1,155.1,273,149.7z M277.4,144.1l5.8-3.3
		c0.3-0.2,0.4-0.5,0.1-0.8c-1.1-1-2.5-0.9-4.2,0c-1.8,1-2.5,2.2-2.4,3.7C276.8,144.2,277.1,144.3,277.4,144.1z"/>
	<path class="st3" d="M297.1,146.1l-7.7-15.6c-0.2-0.3-0.1-0.7,0.3-0.8l3.9-1.9c0.3-0.2,0.7-0.1,0.8,0.3l0.2,0.5
		c0.2,0.4,0.5,0.4,0.7,0c0.6-1.6,2-2.9,4.2-4l0.9-0.5c0.3-0.2,0.7-0.1,0.8,0.3l2,4c0.2,0.3,0.1,0.7-0.3,0.8l-1.2,0.6
		c-3.5,1.8-4.2,3.8-2.4,7.4l3.1,6.3c0.2,0.3,0.1,0.7-0.3,0.8l-4.3,2.1C297.6,146.5,297.3,146.4,297.1,146.1z"/>
	<path class="st3" d="M308.6,135.2c-1.7-4,0.9-7.4,8.6-10.9c0.3-0.1,0.5-0.5,0.2-0.7c-0.8-1-1.9-1.1-3.6-0.4
		c-1.4,0.6-2.2,1.3-2.3,2.2c0,0.3-0.2,0.6-0.5,0.7l-4.4,1.9c-0.4,0.2-0.7,0-0.8-0.4c-1-3.5,1.2-7,5.9-9l0.3-0.1
		c5.5-2.3,9.5-0.7,11.8,4.7l3.8,8.8c0.1,0.3,0,0.7-0.3,0.8l-4,1.7c-0.3,0.1-0.7,0-0.8-0.3l0-0.1c-0.2-0.4-0.4-0.5-0.6-0.2
		c-0.8,1.5-2.4,3-4.5,3.9C313.4,139.5,310,138.5,308.6,135.2z M319.5,128.4c-0.1-0.4-0.4-0.5-0.7-0.3c-4.2,1.9-5.4,3.1-4.9,4.4
		c0.4,0.9,1.3,1.1,2.7,0.5C318.7,132,319.9,130.1,319.5,128.4z"/>
	<path class="st3" d="M329.5,123.4l-1.7-4.4c-0.1-0.3-0.4-0.4-0.7-0.3l-1.7,0.6c-0.4,0.1-0.7,0-0.8-0.4l-1.4-3.9
		c-0.1-0.4,0-0.7,0.4-0.8l1.7-0.6c0.3-0.1,0.4-0.4,0.3-0.7l-1-2.6c-0.1-0.3,0-0.7,0.4-0.8l4.4-1.7c0.4-0.1,0.7,0,0.8,0.4l1,2.6
		c0.1,0.3,0.4,0.4,0.7,0.3l3.2-1.2c0.4-0.1,0.7,0,0.8,0.4l1.4,3.9c0.1,0.4,0,0.7-0.4,0.8l-3.2,1.2c-0.3,0.1-0.4,0.4-0.3,0.7l1.5,3.9
		c0.8,2.2,1.9,2.8,3.8,2.1l1-0.4c0.4-0.1,0.7,0,0.8,0.4l1.5,3.9c0.1,0.3,0,0.7-0.4,0.8l-1.3,0.5
		C334.6,130.2,331.5,128.8,329.5,123.4z"/>
	<path class="st3" d="M341.3,117.9l-0.2-0.6c-1.8-5.7,0.6-10.3,6.5-12.2l0.2-0.1c5.7-1.8,10.1,0.6,12,6.5l0.4,1.1
		c0.1,0.4,0,0.7-0.4,0.8l-12,3.8c-0.4,0.1-0.5,0.4-0.3,0.7c1,1.6,2.4,1.9,4.7,1.2c1.5-0.5,2.4-1.1,2.7-1.9c0.1-0.4,0.3-0.5,0.6-0.6
		l4.6-1.5c0.4-0.1,0.7,0,0.7,0.4c0.6,3.8-1.9,6.9-6.8,8.5l-0.3,0.1C347.7,126,343.1,123.7,341.3,117.9z M346.7,113.3l6.4-2
		c0.4-0.1,0.5-0.4,0.3-0.7c-0.9-1.2-2.2-1.4-4.2-0.8c-1.9,0.6-2.9,1.6-3.1,3.1C346,113.3,346.3,113.4,346.7,113.3z"/>
	<path class="st3" d="M373.3,105.3c0.2-0.3,0.2-0.5-0.1-0.7c-1.2-0.8-2.1-2.2-2.5-3.9c-1-4.3,1.9-7.9,7.3-9.1c5-1.1,8.5,0.5,10,4.7
		c0.2,0.4,0,0.7-0.4,0.8l-4.7,1.1c-0.3,0.1-0.6,0-0.8-0.3c-0.6-0.8-1.6-1.1-3-0.8c-1.8,0.4-2.8,1.4-2.5,2.7c0.3,1.4,1.6,1.9,3.5,1.4
		l11.4-2.6c0.4-0.1,0.6,0.1,0.7,0.5l0.9,3.9c0.1,0.4-0.1,0.6-0.5,0.7l-2.1,0.5c-0.3,0.1-0.5,0.3-0.4,0.7l0.1,0.7
		c0.4,2,1.4,2.7,3.2,2.3l0.1,0c0.4-0.1,0.6,0.1,0.7,0.5l0.9,4.1c0.1,0.4-0.1,0.6-0.5,0.7l-0.5,0.1c-2.6,0.6-4.4,0.4-5.8-0.6
		c-0.3-0.2-0.6-0.2-0.7,0.2c-1.1,1.8-3,3-5.6,3.6c-4.8,1.1-8.8-1-9.8-5.2C371.7,108.9,372.2,106.6,373.3,105.3z M378,109.1
		c0.3,1.4,1.6,2,3.4,1.5c2.5-0.6,3.8-2.4,3.3-4.6l0-0.1c-0.1-0.3-0.3-0.5-0.7-0.4l-3,0.7C378.6,106.7,377.7,107.7,378,109.1z"/>
	<path class="st3" d="M407.4,109.9l-2.8-22.4c0-0.4,0.2-0.6,0.5-0.7l5.1-0.6c0.3,0,0.6,0.1,0.8,0.4c1.5,2.5,4.2,5.5,6,6.5
		c0.3,0.2,0.5,0.1,0.7-0.1c1.4-1.4,3.3-5,4.2-7.8c0.1-0.4,0.3-0.5,0.7-0.6l5.1-0.6c0.4,0,0.6,0.2,0.7,0.5l2.8,22.4
		c0,0.4-0.2,0.6-0.5,0.7l-5,0.6c-0.4,0-0.6-0.2-0.7-0.5l-1.5-11.8c-0.1-0.5-0.4-0.6-0.7-0.1c-1,1.8-2.7,4-4.1,5
		c-0.2,0.2-0.5,0.2-0.8,0.1c-1.6-0.7-3.7-2.3-5.2-3.9c-0.4-0.4-0.7-0.2-0.6,0.3l1.5,11.8c0,0.4-0.2,0.6-0.5,0.7l-5,0.6
		C407.7,110.5,407.4,110.2,407.4,109.9z"/>
	<path class="st3" d="M433.9,98.4l0-0.6c-0.3-6,3.2-9.9,9.5-10.2l0.4,0c6.2-0.3,10.2,3.1,10.5,9.1l0,0.6c0.3,6-3.2,9.9-9.5,10.2
		l-0.4,0C438.1,107.8,434.2,104.4,433.9,98.4z M448.2,97.5l0-0.4c-0.1-2.8-1.6-4.1-4.4-4c-2.7,0.1-4,1.7-3.9,4.4l0,0.4
		c0.1,2.8,1.6,4.1,4.3,4C446.9,101.8,448.3,100.3,448.2,97.5z"/>
	<path class="st3" d="M468,92.8c-2.7,0-4.1,1.4-4.1,4.4l-0.1,8.5c0,0.4-0.2,0.6-0.6,0.6l-4.8-0.1c-0.4,0-0.6-0.2-0.6-0.6l0.2-17.4
		c0-0.4,0.2-0.6,0.6-0.6l4.3,0.1c0.4,0,0.6,0.2,0.6,0.6l0,0.2c0,0.5,0.3,0.6,0.6,0.3c1.3-1.1,3.1-1.6,5.4-1.6c5.4,0.1,8.1,3,8,8.8
		l-0.1,9.8c0,0.4-0.2,0.6-0.6,0.6l-4.8-0.1c-0.4,0-0.6-0.2-0.6-0.6l0.1-8.8C471.5,94.1,470.4,92.8,468,92.8z"/>
	<path class="st3" d="M483.3,89.5c0.7,0.4,1.4,0.6,2.3,0.7c0.9,0.1,1.6-0.1,2.3-0.4c0.5-0.2,0.7-0.1,0.7,0.5l-1,16.3
		c0,0.4-0.3,0.6-0.6,0.6l-4.8-0.3c-0.4,0-0.6-0.3-0.6-0.6l1-16.3C482.6,89.4,482.9,89.3,483.3,89.5z M482.5,84.8
		c0.1-2,1.5-3.2,3.5-3c2.1,0.1,3.3,1.5,3.2,3.4c-0.1,2-1.5,3.2-3.6,3C483.6,88.1,482.4,86.8,482.5,84.8z"/>
	<path class="st3" d="M494,99.6l0.5-4.7c0-0.3-0.2-0.6-0.5-0.6l-1.8-0.2c-0.4,0-0.6-0.3-0.6-0.7l0.4-4.1c0-0.4,0.3-0.6,0.7-0.6
		l1.8,0.2c0.3,0,0.6-0.2,0.6-0.5l0.3-2.8c0-0.4,0.3-0.6,0.7-0.6l4.7,0.5c0.4,0,0.6,0.3,0.6,0.7l-0.3,2.8c0,0.3,0.2,0.6,0.5,0.6
		l3.4,0.3c0.4,0,0.6,0.3,0.6,0.7l-0.4,4.1c0,0.4-0.3,0.6-0.7,0.6L501,95c-0.3,0-0.6,0.2-0.6,0.5l-0.4,4.1c-0.2,2.3,0.5,3.3,2.5,3.5
		l1.1,0.1c0.4,0,0.6,0.3,0.6,0.7l-0.4,4.2c0,0.4-0.3,0.6-0.7,0.6l-1.4-0.1C495.6,107.9,493.4,105.4,494,99.6z"/>
	<path class="st3" d="M507,99.8l0.1-0.6c0.9-6,5.1-9,11.3-8.1l0.4,0.1c6.2,0.9,9.3,5.1,8.4,11l-0.1,0.6c-0.9,6-5.1,9-11.3,8.1
		l-0.4-0.1C509.3,109.9,506.1,105.8,507,99.8z M521.1,101.8l0.1-0.4c0.4-2.7-0.8-4.4-3.5-4.8c-2.7-0.4-4.3,0.8-4.7,3.6l-0.1,0.4
		c-0.4,2.7,0.8,4.4,3.5,4.8C519.1,105.8,520.7,104.5,521.1,101.8z"/>
	<path class="st3" d="M529,111.8l3.5-17c0.1-0.4,0.4-0.6,0.7-0.5l4.2,0.9c0.4,0.1,0.6,0.4,0.5,0.7l-0.1,0.5
		c-0.1,0.5,0.2,0.6,0.6,0.4c1.5-0.9,3.4-1.1,5.7-0.6l1,0.2c0.4,0.1,0.6,0.4,0.5,0.7l-0.9,4.3c-0.1,0.4-0.4,0.6-0.7,0.5l-1.3-0.3
		c-3.9-0.8-5.6,0.4-6.5,4.4l-1.4,6.9c-0.1,0.4-0.4,0.6-0.7,0.5l-4.7-1C529.1,112.4,528.9,112.1,529,111.8z"/>
</g>
<g>
	<path class="st4" d="M1503.6,99.4l-85.3,99.9c7.7-0.7,15.5-1.1,23.4-1.1c129.3,0,236.5,94,257.3,217.3l100.6,85.8l99.7-85.1
		C1877.7,182.6,1681.1-0.3,1441.8-0.3c-7.6,0-15.2,0.2-22.7,0.6L1503.6,99.4z"/>
</g>
<g>
	<path class="st4" d="M453.3,767.4l-45.7-50.9C289,691.9,199.9,586.9,199.9,461.1c0-9.2,0.5-18.2,1.4-27.1l-91.8,75.6
		c25.4,158.3,146.8,280.1,303.4,305.1L453.3,767.4z"/>
</g>
<g>
	<path class="st5" d="M453.3,869l-44.7-49.5H148.3v0c-24,0.5-43.3,22.5-43.3,49.6c0,27.1,19.3,49.1,43.3,49.6v0h260.3L453.3,869z"/>
</g>
<g>
	<path class="st6" d="M947.3,468l-127.4-11.5L654.7,635.8c-47.8,53-116.9,86.3-193.9,86.3c-7.4,0-23.2-1.7-36-3.3l43.6,48.6
		l-44.3,51.9l44.4,48.6l-43.7,51c0,0,35.7,0,36,0c141.1,0,267.3-63.6,351.6-163.7l143.8-155.4L947.3,468z"/>
</g>
<g>
	<path class="st7" d="M1404.9,1.1c-126.1,10-237.8,70.9-314.7,162.2L829.6,446L958,457.5l8.9,130.6l281-303.7
		c39.3-43.6,93.1-73.8,153.8-83.2l87-101.9L1404.9,1.1z"/>
</g>
<g>
	<path class="st0" d="M1125,649.6l128.1-10.1c-1.8-1.8-3.5-3.7-5.2-5.6l0.3-0.3l-155.7-168l-135.2,146l132.9,143.4
		c7.8,9.2,15.9,18.1,24.4,26.7L1125,649.6z"/>
</g>
<g>
	<path class="st1" d="M1900.4,430.3l-100.7,86l-98.3-83.9c0.9,8.8,1.4,17.7,1.4,26.8c0,144.1-116.8,261-261,261
		c-68.8,0-131.3-26.6-178-70.1l-128.3,10.1l-10.4,132c82.4,78.4,193.9,126.6,316.7,126.6c253.8,0,459.5-205.7,459.5-459.5
		C1901.3,449.5,1901,439.9,1900.4,430.3z"/>
</g>
<g>
	<path class="st1" d="M331.9,305l-13.4-18.1c-0.2-0.3-0.2-0.6,0.1-0.9l4.1-3c0.3-0.2,0.5-0.2,0.9,0c2.5,1.4,6.4,2.7,8.4,2.8
		c0.3,0,0.5-0.1,0.6-0.4c0.5-1.9,0.4-6-0.2-8.8c-0.1-0.4,0-0.6,0.3-0.8l4.1-3.1c0.3-0.2,0.6-0.2,0.9,0.1l13.4,18.1
		c0.2,0.3,0.2,0.6-0.1,0.9l-4,3c-0.3,0.2-0.6,0.2-0.9-0.1l-7-9.6c-0.3-0.4-0.6-0.3-0.6,0.2c0,2.1-0.4,4.8-1.1,6.4
		c-0.1,0.3-0.3,0.5-0.7,0.5c-1.7,0.2-4.4-0.2-6.4-0.8c-0.5-0.2-0.7,0.1-0.4,0.5l7,9.6c0.2,0.3,0.2,0.6-0.1,0.9l-4,3
		C332.5,305.3,332.2,305.3,331.9,305z"/>
	<path class="st1" d="M349.1,282.3l-0.3-0.5c-3-5.2-1.5-10.2,3.8-13.3l0.2-0.1c5.2-3,10-1.5,13,3.9l0.6,1c0.2,0.3,0.1,0.7-0.2,0.8
		l-11,6.2c-0.3,0.2-0.4,0.5-0.1,0.8c1.3,1.4,2.8,1.4,4.8,0.2c1.4-0.8,2.1-1.6,2.2-2.4c0-0.4,0.1-0.6,0.4-0.8l4.2-2.4
		c0.4-0.2,0.7-0.1,0.8,0.3c1.4,3.6-0.4,7.1-4.9,9.7l-0.3,0.2C357.1,288.9,352.2,287.6,349.1,282.3z M353.5,276.7l5.8-3.3
		c0.3-0.2,0.4-0.5,0.1-0.8c-1.1-1-2.5-0.9-4.2,0.1s-2.5,2.2-2.4,3.7C352.8,276.8,353.1,276.9,353.5,276.7z"/>
	<path class="st1" d="M369.6,275.1c-1.8-4,0.9-7.5,8.5-11c0.3-0.2,0.5-0.5,0.2-0.7c-0.8-1-1.9-1.1-3.6-0.3c-1.4,0.6-2.2,1.3-2.3,2.2
		c0,0.3-0.2,0.6-0.5,0.7l-4.4,1.9c-0.4,0.2-0.7,0-0.8-0.4c-1-3.5,1.2-7,5.8-9l0.3-0.1c5.4-2.4,9.5-0.8,11.9,4.6l3.9,8.8
		c0.2,0.3,0,0.7-0.3,0.8l-4,1.7c-0.3,0.2-0.7,0-0.8-0.3l0-0.1c-0.2-0.4-0.4-0.5-0.6-0.2c-0.7,1.5-2.4,3-4.5,3.9
		C374.5,279.4,371,278.4,369.6,275.1z M380.5,268.2c-0.1-0.4-0.4-0.5-0.7-0.3c-4.2,2-5.4,3.2-4.9,4.4c0.4,0.9,1.3,1.1,2.7,0.5
		C379.7,271.9,380.9,269.9,380.5,268.2z"/>
	<path class="st1" d="M389,266.5c-0.2-0.4,0-0.7,0.4-0.8l4.5-1.5c0.3-0.1,0.6,0,0.8,0.3c0.7,0.7,1.6,0.8,3.5,0.2
		c2-0.7,2.9-1.4,2.6-2.2c-0.2-0.6-0.8-0.7-2.6-0.4l-2.7,0.5c-4.7,1-7.7-0.3-8.8-3.6c-1.2-3.7,1.2-6.9,6.5-8.6
		c5.1-1.7,8.5-0.7,10.2,2.8c0.2,0.4,0,0.7-0.4,0.8l-4.6,1.5c-0.3,0.1-0.6,0-0.8-0.2c-0.6-0.6-1.4-0.6-3.1,0
		c-1.8,0.6-2.6,1.2-2.3,1.9c0.2,0.6,0.8,0.7,2.2,0.5l3-0.6c4.9-1,7.7,0.1,8.8,3.5c1.3,3.9-1.1,7-6.8,8.9
		C394.3,271.2,390.7,270.2,389,266.5z"/>
	<path class="st1" d="M408.4,257.4l-2.1-9.6c-0.1-0.4,0.1-0.6,0.5-0.7l4.7-1c0.4-0.1,0.6,0.1,0.7,0.5l1.9,8.7
		c0.6,2.8,1.9,3.8,4.4,3.2c2.5-0.5,3.5-2.2,2.8-5.1l-1.8-8.4c-0.1-0.4,0.1-0.6,0.5-0.7l4.7-1c0.4-0.1,0.6,0.1,0.7,0.5l3.6,17
		c0.1,0.4-0.1,0.6-0.5,0.7l-4.2,0.9c-0.4,0.1-0.6-0.1-0.7-0.5l0-0.2c-0.1-0.5-0.3-0.6-0.5-0.3c-1,1.4-2.5,2.3-4.8,2.8
		C413,265.3,409.6,262.9,408.4,257.4z"/>
	<path class="st1" d="M432.7,260.3l-2-17.2c0-0.4,0.2-0.6,0.5-0.7l4.3-0.5c0.4,0,0.6,0.2,0.7,0.5l0.1,0.5c0.1,0.5,0.3,0.5,0.7,0.2
		c1.2-1.3,2.9-2.1,5.3-2.4l1-0.1c0.4,0,0.6,0.2,0.7,0.5l0.5,4.4c0,0.4-0.2,0.6-0.5,0.7l-1.3,0.1c-3.9,0.5-5.2,2.2-4.8,6.2l0.8,7
		c0,0.4-0.2,0.6-0.5,0.7l-4.8,0.6C433,260.8,432.8,260.6,432.7,260.3z"/>
	<path class="st1" d="M446.7,250.1l0-0.6c-0.2-6,3.5-9.7,9.6-9.9l0.2,0c6-0.2,9.5,3.4,9.7,9.6l0,1.2c0,0.4-0.2,0.6-0.6,0.6
		l-12.6,0.3c-0.4,0-0.6,0.3-0.5,0.6c0.5,1.8,1.8,2.5,4.1,2.5c1.6,0,2.6-0.4,3.1-1.1c0.2-0.3,0.4-0.5,0.7-0.5l4.9-0.1
		c0.4,0,0.7,0.2,0.6,0.6c-0.5,3.8-3.8,6.1-8.9,6.2l-0.3,0C450.6,259.7,446.9,256.3,446.7,250.1z M453.2,247.3l6.7-0.2
		c0.4,0,0.6-0.3,0.5-0.6c-0.5-1.4-1.8-2-3.8-1.9c-2,0.1-3.2,0.7-3.8,2.1C452.6,247,452.8,247.3,453.2,247.3z"/>
	<path class="st1" d="M480.6,247.5c0.3-0.2,0.4-0.4,0.1-0.7c-0.8-1.1-1.3-2.8-1-4.6c0.6-4.4,4.5-6.8,10-6.1c5.1,0.7,7.8,3.4,7.8,7.9
		c0,0.4-0.3,0.6-0.7,0.6l-4.8-0.6c-0.3,0-0.5-0.2-0.6-0.6c-0.3-1-1.1-1.6-2.6-1.8c-1.9-0.2-3.1,0.4-3.2,1.7
		c-0.2,1.4,0.8,2.3,2.8,2.6l11.6,1.5c0.4,0,0.6,0.3,0.5,0.7L500,252c0,0.4-0.3,0.6-0.7,0.5l-2.1-0.3c-0.3,0-0.6,0.1-0.6,0.5
		l-0.1,0.7c-0.3,2,0.4,3,2.2,3.2l0.1,0c0.4,0,0.6,0.3,0.5,0.7l-0.5,4.2c0,0.4-0.3,0.6-0.7,0.5l-0.5-0.1c-2.6-0.3-4.3-1.1-5.2-2.6
		c-0.2-0.3-0.5-0.3-0.7-0.1c-1.6,1.3-3.8,1.8-6.5,1.5c-4.9-0.6-8-4-7.4-8.2C477.9,250.3,479.2,248.4,480.6,247.5z M483.8,252.7
		c-0.2,1.4,0.8,2.4,2.7,2.6c2.5,0.3,4.3-0.9,4.6-3.2l0-0.1c0-0.3-0.1-0.6-0.5-0.6l-3.1-0.4C485.2,250.7,483.9,251.2,483.8,252.7z"/>
	<path class="st1" d="M510,263.8l6.2-21.7c0.1-0.4,0.4-0.5,0.8-0.4l4.8,1.4c0.4,0.1,0.5,0.4,0.4,0.8l-4.6,16.1
		c-0.1,0.3,0,0.6,0.4,0.7l10.9,3.1c0.4,0.1,0.5,0.4,0.4,0.8l-1.3,4.4c-0.1,0.4-0.4,0.5-0.8,0.4l-16.8-4.8
		C510,264.5,509.9,264.2,510,263.8z"/>
	<path class="st1" d="M532.4,261.7l0.2-0.6c2.2-5.6,7.1-7.5,12.8-5.2l0.2,0.1c5.6,2.2,7.4,6.9,5.1,12.6l-0.4,1.1
		c-0.1,0.3-0.5,0.5-0.8,0.3l-11.7-4.7c-0.3-0.1-0.6,0-0.7,0.4c-0.3,1.9,0.6,3,2.8,3.9c1.5,0.6,2.6,0.7,3.3,0.2
		c0.3-0.2,0.5-0.3,0.9-0.1l4.5,1.8c0.4,0.2,0.5,0.5,0.3,0.8c-2,3.3-5.9,4.1-10.6,2.2l-0.3-0.1C532.1,272,530.1,267.4,532.4,261.7z
		 M539.5,261.6l6.2,2.5c0.3,0.1,0.6,0,0.7-0.4c0.1-1.5-0.8-2.5-2.7-3.3c-1.9-0.8-3.3-0.6-4.4,0.4C539,261.2,539.1,261.5,539.5,261.6
		z"/>
	<path class="st1" d="M550.8,273.2c2.1-3.9,6.4-3.9,13.9-0.1c0.3,0.2,0.7,0.1,0.7-0.3c0.3-1.2-0.4-2.2-2-3c-1.4-0.7-2.4-0.9-3.1-0.5
		c-0.3,0.2-0.5,0.2-0.8,0.1l-4.2-2.3c-0.4-0.2-0.5-0.5-0.2-0.8c2.2-3,6.2-3.4,10.7-1l0.3,0.2c5.2,2.8,6.5,7,3.7,12.2l-4.5,8.5
		c-0.2,0.3-0.5,0.4-0.8,0.3l-3.8-2c-0.3-0.2-0.4-0.5-0.3-0.8l0-0.1c0.2-0.4,0.1-0.7-0.2-0.6c-1.7,0.4-3.8,0-5.9-1.1
		C550.4,279.8,549.1,276.5,550.8,273.2z M562.9,277.6c0.2-0.3,0.1-0.6-0.2-0.8c-4.1-2-5.8-2.3-6.5-1.1c-0.5,0.9,0,1.7,1.3,2.4
		C559.6,279.2,561.8,278.9,562.9,277.6z"/>
	<path class="st1" d="M568.1,288l9.5-14.5c0.2-0.3,0.5-0.4,0.8-0.2l3.6,2.4c0.3,0.2,0.4,0.5,0.2,0.8l-0.3,0.4
		c-0.3,0.4-0.1,0.6,0.4,0.6c1.7-0.3,3.6,0.3,5.6,1.6l0.9,0.6c0.3,0.2,0.4,0.5,0.2,0.8l-2.4,3.7c-0.2,0.3-0.5,0.4-0.8,0.2l-1.1-0.7
		c-3.3-2.2-5.4-1.7-7.6,1.7l-3.9,5.9c-0.2,0.3-0.5,0.4-0.8,0.2l-4-2.6C567.9,288.7,567.9,288.4,568.1,288z"/>
	<path class="st1" d="M597,292.7c-2.1-1.7-4.1-1.4-5.9,0.9l-5.3,6.7c-0.2,0.3-0.6,0.3-0.9,0.1l-3.7-3c-0.3-0.2-0.3-0.6-0.1-0.9
		l10.9-13.6c0.2-0.3,0.6-0.3,0.9-0.1l3.4,2.7c0.3,0.2,0.3,0.6,0.1,0.9l-0.2,0.2c-0.3,0.4-0.1,0.6,0.3,0.6c1.7-0.1,3.4,0.6,5.3,2.1
		c4.3,3.4,4.5,7.3,0.9,11.8l-6.1,7.7c-0.2,0.3-0.6,0.3-0.9,0.1l-3.7-3c-0.3-0.2-0.3-0.6-0.1-0.9l5.5-6.9
		C599,296,598.9,294.2,597,292.7z"/>
</g>
<g>
	<path class="st3" d="M34.9,509.8h22.5c0.4,0,0.6,0.2,0.6,0.6v8.8c0,8.3-3.8,12.7-11.4,12.7h-1c-7.6,0-11.4-4.3-11.4-12.7v-8.8
		C34.3,510.1,34.6,509.8,34.9,509.8z M40.2,516.6v2.7c0,4.4,1.8,6.4,5.7,6.4h0.7c3.9,0,5.7-2,5.7-6.4v-2.7c0-0.3-0.2-0.5-0.5-0.5
		h-11C40.4,516,40.2,516.2,40.2,516.6z"/>
	<path class="st3" d="M43.4,534.3H44c6,0,9.6,3.7,9.6,9.9v0.2c0,6-3.6,9.4-9.8,9.4h-1.2c-0.4,0-0.6-0.2-0.6-0.6v-12.6
		c0-0.4-0.2-0.6-0.6-0.5c-1.8,0.4-2.6,1.7-2.6,4.1c0,1.6,0.3,2.6,1,3.1c0.3,0.2,0.4,0.4,0.4,0.7v4.9c0,0.4-0.2,0.6-0.6,0.6
		c-3.8-0.6-6-3.9-6-9.1v-0.3C33.7,537.9,37.2,534.3,43.4,534.3z M46.1,540.8v6.7c0,0.4,0.2,0.6,0.6,0.5c1.4-0.5,2-1.7,2-3.7
		s-0.6-3.3-2-3.9C46.3,540.2,46.1,540.5,46.1,540.8z"/>
	<path class="st3" d="M43.3,556.6h0.6c6,0,9.7,3.7,9.7,9.9v0.3c0,5.4-2.5,8.7-6.9,9.2c-0.4,0.1-0.6-0.2-0.6-0.6v-4.9
		c0-0.3,0.2-0.5,0.5-0.7c1-0.4,1.5-1.5,1.5-3.2c0-2.7-1.3-4-4.2-4h-0.4c-2.9,0-4.2,1.3-4.2,4c0,1.7,0.5,2.8,1.5,3.2
		c0.3,0.2,0.5,0.4,0.5,0.7v4.9c0,0.4-0.2,0.6-0.6,0.6c-4.4-0.5-6.9-3.8-6.9-9.2v-0.3C33.7,560.3,37.3,556.6,43.3,556.6z"/>
	<path class="st3" d="M43.3,578.2h0.6c6,0,9.7,3.7,9.7,10v0.4c0,6.2-3.6,10-9.7,10h-0.6c-6,0-9.7-3.7-9.7-10v-0.4
		C33.7,581.9,37.3,578.2,43.3,578.2z M43.4,592.5h0.4c2.8,0,4.2-1.4,4.2-4.2c0-2.7-1.5-4.1-4.2-4.1h-0.4c-2.8,0-4.2,1.4-4.2,4.1
		C39.2,591,40.7,592.5,43.4,592.5z"/>
	<path class="st3" d="M47.9,611.4c0-2.2-1.5-3.4-4-3.4h-9c-0.4,0-0.6-0.2-0.6-0.6v-4.8c0-0.4,0.2-0.6,0.6-0.6h17.4
		c0.4,0,0.6,0.2,0.6,0.6v4.3c0,0.4-0.2,0.6-0.6,0.6H52c-0.5,0-0.6,0.3-0.2,0.6c1.1,1.2,1.7,2.9,1.7,5c0,2.2-0.7,4-1.9,5.2
		c-0.3,0.3-0.3,0.5,0,0.7c1.3,1.4,1.9,3.4,1.9,6c0,5.3-2.8,8.1-8.5,8.1h-10c-0.4,0-0.6-0.2-0.6-0.6v-4.8c0-0.4,0.2-0.6,0.6-0.6h9.2
		c2.5,0,3.8-1.1,3.8-3.2c0-2.2-1.4-3.4-4-3.4h-9c-0.4,0-0.6-0.2-0.6-0.6v-4.8c0-0.4,0.2-0.6,0.6-0.6h9.2
		C46.6,614.6,47.9,613.5,47.9,611.4z"/>
	<path class="st3" d="M47.9,647.1c0-2.2-1.5-3.4-4-3.4h-9c-0.4,0-0.6-0.2-0.6-0.6v-4.8c0-0.4,0.2-0.6,0.6-0.6h17.4
		c0.4,0,0.6,0.2,0.6,0.6v4.3c0,0.4-0.2,0.6-0.6,0.6H52c-0.5,0-0.6,0.3-0.2,0.6c1.1,1.2,1.7,2.9,1.7,5c0,2.2-0.7,4-1.9,5.2
		c-0.3,0.3-0.3,0.5,0,0.7c1.3,1.4,1.9,3.4,1.9,6c0,5.3-2.8,8.1-8.5,8.1h-10c-0.4,0-0.6-0.2-0.6-0.6v-4.8c0-0.4,0.2-0.6,0.6-0.6h9.2
		c2.5,0,3.8-1.1,3.8-3.2c0-2.2-1.4-3.4-4-3.4h-9c-0.4,0-0.6-0.2-0.6-0.6v-4.8c0-0.4,0.2-0.6,0.6-0.6h9.2
		C46.6,650.3,47.9,649.2,47.9,647.1z"/>
	<path class="st3" d="M51.7,674.1c-0.4,0.7-0.5,1.5-0.5,2.3c0,0.9,0.2,1.6,0.5,2.3c0.2,0.4,0.1,0.7-0.4,0.7l-16.3,0
		c-0.4,0-0.6-0.2-0.6-0.6v-4.8c0-0.4,0.2-0.6,0.6-0.6l16.3,0C51.8,673.3,51.9,673.6,51.7,674.1z M56.3,673c2,0,3.2,1.3,3.2,3.3
		c0,2.1-1.3,3.4-3.2,3.4c-2,0-3.2-1.3-3.2-3.4C53.1,674.3,54.3,673,56.3,673z"/>
	<path class="st3" d="M39.7,682.7c0.4,0,0.6,0.2,0.6,0.6v4.8c0,0.3-0.2,0.6-0.5,0.7c-0.9,0.4-1.2,1.3-1.2,3.2c0,2.1,0.4,3.1,1.3,3.1
		c0.7,0,1-0.6,1.2-2.4l0.3-2.7c0.5-4.8,2.6-7.2,6.1-7.2c3.9,0,6.2,3.2,6.2,8.9c0,5.3-2,8.3-5.8,8.8c-0.4,0.1-0.6-0.2-0.6-0.6v-4.8
		c0-0.3,0.2-0.5,0.5-0.7c0.7-0.4,1-1.2,1-2.9c0-1.9-0.3-2.8-1.1-2.8c-0.6,0-1,0.6-1.1,2l-0.4,3c-0.6,5-2.5,7.3-6.1,7.3
		c-4.1,0-6.3-3.2-6.3-9.2C33.7,686.3,35.7,683.1,39.7,682.7z"/>
	<path class="st3" d="M39.7,703.2c0.4,0,0.6,0.2,0.6,0.6v4.8c0,0.3-0.2,0.6-0.5,0.7c-0.9,0.4-1.2,1.3-1.2,3.2c0,2.1,0.4,3.1,1.3,3.1
		c0.7,0,1-0.6,1.2-2.4l0.3-2.7c0.5-4.8,2.6-7.2,6.1-7.2c3.9,0,6.2,3.2,6.2,8.9c0,5.3-2,8.3-5.8,8.8c-0.4,0.1-0.6-0.2-0.6-0.6v-4.8
		c0-0.3,0.2-0.5,0.5-0.7c0.7-0.4,1-1.2,1-2.9c0-1.9-0.3-2.8-1.1-2.8c-0.6,0-1,0.6-1.1,2l-0.4,3c-0.6,5-2.5,7.3-6.1,7.3
		c-4.1,0-6.3-3.2-6.3-9.2C33.7,706.8,35.7,703.6,39.7,703.2z"/>
	<path class="st3" d="M51.7,725.7c-0.4,0.7-0.5,1.5-0.5,2.3c0,0.9,0.2,1.6,0.5,2.3c0.2,0.4,0.1,0.7-0.4,0.7l-16.3,0
		c-0.4,0-0.6-0.2-0.6-0.6v-4.8c0-0.4,0.2-0.6,0.6-0.6l16.3,0C51.8,724.9,51.9,725.2,51.7,725.7z M56.3,724.6c2,0,3.2,1.3,3.2,3.3
		c0,2.1-1.3,3.4-3.2,3.4c-2,0-3.2-1.3-3.2-3.4C53.1,725.9,54.3,724.6,56.3,724.6z"/>
	<path class="st3" d="M43.3,734.5h0.6c6,0,9.7,3.7,9.7,10v0.4c0,6.2-3.6,10-9.7,10h-0.6c-6,0-9.7-3.7-9.7-10v-0.4
		C33.7,738.2,37.3,734.5,43.3,734.5z M43.4,748.8h0.4c2.8,0,4.2-1.4,4.2-4.2c0-2.7-1.5-4.1-4.2-4.1h-0.4c-2.8,0-4.2,1.4-4.2,4.1
		C39.2,747.3,40.7,748.8,43.4,748.8z"/>
	<path class="st3" d="M47.9,768.3c0-2.7-1.5-4.1-4.4-4.1h-8.5c-0.4,0-0.6-0.2-0.6-0.6v-4.8c0-0.4,0.2-0.6,0.6-0.6h17.4
		c0.4,0,0.6,0.2,0.6,0.6v4.3c0,0.4-0.2,0.6-0.6,0.6h-0.2c-0.5,0-0.6,0.3-0.3,0.6c1.1,1.3,1.7,3.1,1.7,5.4c0,5.4-2.9,8.1-8.7,8.1
		h-9.8c-0.4,0-0.6-0.2-0.6-0.6v-4.8c0-0.4,0.2-0.6,0.6-0.6h8.8C46.6,771.9,47.9,770.8,47.9,768.3z"/>
</g>
<g>
	<path class="st3" d="M1632.2,135.7l0.5,0.3c5.8,3.4,7.1,8.9,3.4,15.2l-6.3,10.8c-0.2,0.3-0.5,0.4-0.8,0.2l-4.3-2.5
		c-0.3-0.2-0.4-0.5-0.2-0.8l2.6-4.5c0.2-0.3,0.1-0.6-0.3-0.7c-1.2-0.3-2.5-0.8-3.8-1.6s-2.3-1.6-3.2-2.5c-0.3-0.3-0.6-0.2-0.8,0.1
		l-2.6,4.5c-0.2,0.3-0.5,0.4-0.8,0.2l-4.3-2.5c-0.3-0.2-0.4-0.5-0.2-0.8l6.3-10.8C1621,133.9,1626.5,132.3,1632.2,135.7z
		 M1622.7,144.4c0.8,0.9,2,1.8,3.3,2.6c1.4,0.8,2.7,1.3,3.9,1.6c0.3,0.1,0.5,0,0.7-0.3l0.2-0.4c1.8-3.2,1.4-5.3-1.2-6.8l-0.3-0.2
		c-2.6-1.5-4.7-0.8-6.6,2.3l-0.2,0.4C1622.4,143.9,1622.4,144.2,1622.7,144.4z"/>
	<path class="st3" d="M1632.9,164l12.8-19.6c0.2-0.3,0.5-0.4,0.8-0.2l4,2.6c0.3,0.2,0.4,0.5,0.2,0.8l-12.8,19.6
		c-0.2,0.3-0.5,0.4-0.8,0.2l-4-2.6C1632.8,164.6,1632.7,164.3,1632.9,164z"/>
	<path class="st3" d="M1651.6,156.3c0.3,0.7,0.9,1.3,1.6,1.8c0.7,0.5,1.4,0.8,2.2,0.9c0.5,0.1,0.6,0.3,0.4,0.7l-9.3,13.4
		c-0.2,0.3-0.5,0.4-0.9,0.2l-3.9-2.7c-0.3-0.2-0.4-0.5-0.2-0.9l9.3-13.4C1651.1,155.8,1651.4,155.9,1651.6,156.3z M1653.4,151.9
		c1.1-1.6,2.9-1.9,4.6-0.8c1.7,1.2,2.1,3,0.9,4.6s-2.9,1.9-4.6,0.7C1652.6,155.3,1652.3,153.5,1653.4,151.9z"/>
	<path class="st3" d="M1648.9,175.8c0.2-0.4,0.5-0.4,0.9-0.2l3.8,2.9c0.2,0.2,0.3,0.4,0.3,0.8c0.1,0.6,0.7,1.3,1.9,2.2
		c2.3,1.7,3.7,1.9,4.9,0.4l0.1-0.1c0.3-0.4,0.1-0.6-0.3-0.7c-1.3-0.1-2.6-0.7-4.1-1.8c-4.4-3.3-5-8-1.6-12.4
		c3.4-4.4,7.9-5.1,12.3-1.7c1.6,1.2,2.6,2.5,3,3.9c0.1,0.5,0.4,0.6,0.6,0.2c0.2-0.3,0.6-0.3,0.9-0.1l3.5,2.7
		c0.3,0.2,0.3,0.6,0.1,0.9l-9.6,12.5c-3.3,4.3-7.7,4.5-12.7,0.7l-0.3-0.2C1648.5,182.7,1647.2,179,1648.9,175.8z M1665.6,175.4
		c1.5-1.9,1.2-3.6-0.9-5.2c-2.1-1.6-3.8-1.4-5.2,0.5c-1.5,1.9-1.2,3.6,0.9,5.2C1662.4,177.5,1664.1,177.4,1665.6,175.4z"/>
	<path class="st3" d="M1683.7,185.9c-2-1.8-4-1.5-6,0.7l-5.6,6.4c-0.2,0.3-0.6,0.3-0.9,0.1l-3.6-3.2c-0.3-0.2-0.3-0.6-0.1-0.9
		L1679,176c0.2-0.3,0.6-0.3,0.9-0.1l3.3,2.8c0.3,0.2,0.3,0.6,0.1,0.9l-0.2,0.2c-0.3,0.4-0.2,0.6,0.3,0.6c1.7,0,3.4,0.8,5.2,2.3
		c4.1,3.6,4.2,7.5,0.4,11.9l-6.5,7.4c-0.2,0.3-0.6,0.3-0.9,0.1l-3.6-3.2c-0.3-0.2-0.3-0.6-0.1-0.9l5.8-6.6
		C1685.5,189.3,1685.6,187.5,1683.7,185.9z"/>
	<path class="st3" d="M1700.8,204c0.4,0,0.6-0.1,0.5-0.5c0.1-1.4,0.8-2.9,2.1-4.2c3.2-3,7.8-2.4,11.6,1.6c3.5,3.7,3.9,7.6,1.1,11
		c-0.2,0.3-0.6,0.3-0.9,0l-3.3-3.5c-0.2-0.2-0.3-0.5-0.1-0.8c0.4-0.9,0.1-1.9-0.9-3c-1.3-1.4-2.6-1.6-3.6-0.7c-1,1-0.8,2.3,0.6,3.7
		l8,8.5c0.3,0.3,0.2,0.6,0,0.9l-2.9,2.7c-0.3,0.3-0.6,0.2-0.9,0l-1.5-1.6c-0.2-0.2-0.5-0.3-0.8,0l-0.5,0.5c-1.5,1.4-1.6,2.6-0.3,3.9
		l0.1,0.1c0.3,0.3,0.2,0.6,0,0.9l-3,2.9c-0.3,0.3-0.6,0.2-0.9,0l-0.4-0.4c-1.8-1.9-2.6-3.6-2.4-5.3c0-0.4-0.2-0.6-0.5-0.5
		c-2.1,0-4.1-1-6-2.9c-3.4-3.6-3.7-8.1-0.6-11.1C1697,204.5,1699.1,203.8,1700.8,204z M1700,210c-1,1-0.9,2.3,0.4,3.7
		c1.7,1.8,4,2,5.6,0.4l0.1-0.1c0.2-0.2,0.3-0.5,0-0.8l-2.1-2.2C1702.3,209.3,1701,209,1700,210z"/>
	<path class="st3" d="M1714,235.3l17.7-13.9c0.3-0.2,0.6-0.2,0.9,0.1l7.2,9.2c3.8,4.9,3.6,9.3-0.8,12.7c-4.4,3.4-8.7,2.7-12.5-2.2
		l-3.4-4.3c-0.2-0.3-0.5-0.3-0.8-0.1l-4.4,3.5c-0.3,0.2-0.6,0.2-0.9-0.1l-3.1-3.9C1713.6,235.8,1713.7,235.5,1714,235.3z
		 M1727.6,233.2l3.3,4.2c1.4,1.8,2.8,2.2,4.2,1.1c1.4-1.1,1.4-2.5,0-4.3l-3.3-4.2c-0.2-0.3-0.5-0.3-0.8-0.1l-3.3,2.6
		C1727.4,232.6,1727.4,232.9,1727.6,233.2z"/>
	<path class="st3" d="M1728.6,254.4l19.1-13.5c0.3-0.2,0.6-0.2,0.9,0.1l2.8,3.9c0.2,0.3,0.2,0.6-0.1,0.9l-19.1,13.5
		c-0.3,0.2-0.6,0.2-0.9-0.1l-2.8-3.9C1728.3,254.9,1728.3,254.6,1728.6,254.4z"/>
	<path class="st3" d="M1737.8,259.1c3.7-2.4,7.5-0.3,12.2,6.7c0.2,0.3,0.5,0.4,0.7,0.1c0.8-0.9,0.7-2.1-0.2-3.6
		c-0.8-1.3-1.6-1.9-2.5-1.9c-0.3,0-0.6-0.1-0.8-0.4l-2.6-4c-0.2-0.3-0.1-0.7,0.2-0.8c3.3-1.5,7.1,0.1,9.8,4.3l0.2,0.3
		c3.2,5,2.2,9.3-2.7,12.4l-8.1,5.2c-0.3,0.2-0.6,0.1-0.8-0.2l-2.3-3.6c-0.2-0.3-0.1-0.6,0.2-0.8l0.1,0c0.4-0.2,0.4-0.5,0.1-0.6
		c-1.6-0.5-3.3-1.9-4.6-3.8C1734.2,264.6,1734.7,261.1,1737.8,259.1z M1746.2,268.8c0.4-0.1,0.4-0.5,0.2-0.8c-2.6-3.8-4-4.9-5.1-4.1
		c-0.9,0.6-0.9,1.5,0,2.8C1742.5,268.6,1744.6,269.5,1746.2,268.8z"/>
	<path class="st3" d="M1762.1,283c-1.3-2.4-3.3-2.8-5.8-1.4l-7.5,4.2c-0.3,0.2-0.7,0.1-0.8-0.2l-2.3-4.2c-0.2-0.3-0.1-0.7,0.2-0.8
		l15.2-8.4c0.3-0.2,0.7-0.1,0.8,0.2l2.1,3.8c0.2,0.3,0.1,0.7-0.2,0.8l-0.2,0.1c-0.4,0.2-0.4,0.5,0.1,0.7c1.6,0.6,2.9,1.9,4.1,3.9
		c2.6,4.8,1.4,8.5-3.7,11.3l-8.6,4.8c-0.3,0.2-0.7,0.1-0.8-0.2l-2.3-4.2c-0.2-0.3-0.1-0.7,0.2-0.8l7.7-4.3
		C1762.7,286.8,1763.3,285.2,1762.1,283z"/>
</g>
<g>
	<path class="st3" d="M179,555.5l0.2,0.5c2.4,6.2,0,11.4-6.7,14l-11.6,4.6c-0.3,0.1-0.7,0-0.8-0.3l-1.8-4.7c-0.1-0.3,0-0.7,0.3-0.8
		l4.8-1.9c0.3-0.1,0.5-0.4,0.2-0.7c-0.8-1-1.5-2.2-2-3.6s-0.8-2.7-1-3.9c0-0.4-0.3-0.5-0.6-0.4l-4.8,1.9c-0.3,0.1-0.7,0-0.8-0.3
		l-1.8-4.7c-0.1-0.3,0-0.7,0.3-0.8l11.6-4.6C171.3,547.2,176.6,549.3,179,555.5z M166.1,556.4c0.1,1.2,0.4,2.7,1,4.1
		c0.6,1.5,1.3,2.7,2.1,3.7c0.2,0.3,0.4,0.3,0.7,0.2l0.4-0.2c3.4-1.3,4.4-3.3,3.3-6.1l-0.1-0.3c-1.1-2.8-3.2-3.6-6.6-2.2l-0.4,0.2
		C166.2,555.8,166.1,556,166.1,556.4z"/>
	<path class="st3" d="M170.4,596.1l-1.9-3.9c-0.2-0.3,0-0.7,0.3-0.8l0.1,0c0.4-0.2,0.4-0.5,0-0.7c-1.4-0.7-2.5-2-3.4-3.8
		c-2.5-5.1-0.7-9.7,4.7-12.2l0.5-0.2c5.4-2.6,10-1.2,12.4,3.9c0.8,1.7,1.1,3.2,0.9,4.6c-0.1,0.4,0.2,0.6,0.6,0.4l5.2-2.5
		c0.3-0.2,0.7,0,0.8,0.3l2.1,4.3c0.2,0.3,0,0.7-0.3,0.8l-21.1,10.1C170.9,596.5,170.5,596.4,170.4,596.1z M176.3,587.4l0.3-0.1
		c2.5-1.2,3.2-3.1,2.1-5.6c-1.2-2.5-3.1-3.1-5.6-1.9l-0.3,0.1c-2.5,1.2-3.2,3.1-2.1,5.6C171.9,587.9,173.8,588.6,176.3,587.4z"/>
	<path class="st3" d="M177.2,597.8c3.8-2.2,7.5,0.1,11.8,7.4c0.2,0.3,0.5,0.4,0.7,0.1c0.9-0.9,0.9-2,0-3.6c-0.8-1.3-1.5-2-2.4-2.1
		c-0.3,0-0.6-0.1-0.7-0.4l-2.4-4.2c-0.2-0.4-0.1-0.7,0.3-0.8c3.4-1.3,7.1,0.5,9.6,4.9l0.2,0.3c2.9,5.2,1.7,9.4-3.4,12.3l-8.4,4.7
		c-0.3,0.2-0.7,0.1-0.8-0.2l-2.1-3.8c-0.2-0.3-0.1-0.7,0.2-0.8l0.1,0c0.4-0.2,0.5-0.5,0.1-0.6c-1.6-0.6-3.2-2.1-4.3-4.1
		C173.3,603.1,174,599.6,177.2,597.8z M185,607.9c0.4-0.1,0.4-0.4,0.2-0.8c-2.4-3.9-3.7-5.1-4.9-4.4c-0.9,0.5-0.9,1.4-0.2,2.8
		C181.3,607.6,183.4,608.5,185,607.9z"/>
	<path class="st3" d="M200.3,611.4l2.4,3.6c0.2,0.3,0.1,0.6-0.2,0.8l-0.1,0c-0.4,0.2-0.3,0.5,0.1,0.7c1.5,0.5,2.8,1.6,3.9,3.3
		c3.1,4.8,2,9.5-3,12.8L203,633c-5,3.3-9.7,2.5-12.8-2.3c-1-1.5-1.5-3-1.5-4.5c0-0.4-0.3-0.6-0.6-0.4l-4.6,3
		c-0.3,0.2-0.6,0.1-0.8-0.2l-2.6-4c-0.2-0.3-0.1-0.6,0.2-0.8l19.3-12.7C199.8,611,200.1,611.1,200.3,611.4z M195.6,620.8l-0.3,0.2
		c-2.3,1.5-2.8,3.5-1.3,5.8c1.5,2.3,3.5,2.7,5.8,1.1l0.3-0.2c2.4-1.5,2.8-3.5,1.3-5.8C199.9,619.7,197.9,619.3,195.6,620.8z"/>
	<path class="st3" d="M205.1,637.5l3.8-2.8c0.3-0.2,0.3-0.5,0.1-0.8l-1.1-1.4c-0.2-0.3-0.2-0.6,0.1-0.9l3.3-2.5
		c0.3-0.2,0.6-0.2,0.9,0.1l1.1,1.4c0.2,0.3,0.5,0.3,0.8,0.1l2.2-1.7c0.3-0.2,0.6-0.2,0.9,0.1l2.8,3.8c0.2,0.3,0.2,0.6-0.1,0.9
		l-2.2,1.7c-0.3,0.2-0.3,0.5-0.1,0.8l2,2.7c0.2,0.3,0.2,0.6-0.1,0.9l-3.3,2.5c-0.3,0.2-0.6,0.2-0.9-0.1l-2-2.7
		c-0.2-0.3-0.5-0.3-0.8-0.1l-3.3,2.5c-1.9,1.4-2.2,2.6-1,4.2l0.6,0.9c0.2,0.3,0.2,0.6-0.1,0.9l-3.4,2.5c-0.3,0.2-0.6,0.2-0.9-0.1
		l-0.9-1.1C200.1,644.3,200.5,641,205.1,637.5z"/>
	<path class="st3" d="M223.7,655c0.4,0,0.6-0.1,0.6-0.4c0.1-1.4,0.9-2.9,2.2-4.1c3.3-2.9,7.9-2.1,11.5,2c3.4,3.8,3.6,7.7,0.7,11
		c-0.3,0.3-0.6,0.3-0.9,0l-3.2-3.6c-0.2-0.3-0.2-0.5-0.1-0.8c0.4-0.9,0.2-1.9-0.8-3c-1.2-1.4-2.6-1.7-3.6-0.8
		c-1,0.9-0.9,2.3,0.4,3.8l7.7,8.8c0.2,0.3,0.2,0.6-0.1,0.9l-3,2.6c-0.3,0.2-0.6,0.2-0.9-0.1l-1.4-1.6c-0.2-0.3-0.5-0.3-0.8,0
		l-0.5,0.5c-1.5,1.4-1.7,2.5-0.5,3.9l0.1,0.1c0.2,0.3,0.2,0.6-0.1,0.9l-3.1,2.8c-0.3,0.2-0.6,0.2-0.9-0.1L227,677
		c-1.7-2-2.5-3.7-2.2-5.4c0-0.4-0.1-0.6-0.5-0.6c-2.1-0.1-4.1-1.1-5.9-3.2c-3.3-3.7-3.4-8.2-0.2-11.1
		C219.8,655.3,222,654.7,223.7,655z M222.6,660.9c-1.1,0.9-1,2.3,0.3,3.7c1.7,1.9,3.9,2.1,5.6,0.6l0.1-0.1c0.3-0.2,0.3-0.5,0-0.8
		l-2.1-2.3C225,660.4,223.7,660,222.6,660.9z"/>
	<path class="st3" d="M244.5,678.7l0.8-0.8c5.1-5.5,11.4-5.8,16.6-1l0.5,0.5c5.2,4.8,5.4,11.1,0.3,16.6l-0.8,0.8
		c-5.1,5.5-11.4,5.8-16.6,1l-0.5-0.5C239.6,690.5,239.4,684.2,244.5,678.7z M257.4,690.5l0.6-0.7c2.7-2.9,2.7-5.9,0.2-8.2l-0.4-0.4
		c-2.5-2.3-5.4-2.1-8.1,0.9l-0.6,0.7c-2.7,2.9-2.7,5.9-0.2,8.2l0.4,0.4C251.8,693.7,254.7,693.5,257.4,690.5z"/>
	<path class="st3" d="M269.7,691.7l3.4,2.7c0.3,0.2,0.3,0.6,0.1,0.9l0,0.1c-0.3,0.3-0.1,0.6,0.3,0.6c1.6,0,3.2,0.7,4.7,2
		c4.4,3.5,4.9,8.4,1.1,13l-0.3,0.4c-3.8,4.7-8.5,5.4-12.9,1.9c-1.4-1.1-2.4-2.4-2.8-3.8c-0.1-0.4-0.4-0.5-0.7-0.1l-3.4,4.3
		c-0.2,0.3-0.6,0.3-0.9,0.1l-3.8-3c-0.3-0.2-0.3-0.6-0.1-0.9l14.4-18C269,691.5,269.4,691.5,269.7,691.7z M268.1,702.2l-0.2,0.3
		c-1.7,2.2-1.5,4.2,0.6,5.9c2.1,1.7,4.1,1.5,5.9-0.8l0.2-0.3c1.8-2.2,1.6-4.2-0.6-5.9C271.9,699.7,269.8,700,268.1,702.2z"/>
	<path class="st3" d="M282.4,715.1l2.7-3.9c0.2-0.3,0.1-0.6-0.1-0.8l-1.4-1c-0.3-0.2-0.4-0.5-0.1-0.9l2.4-3.4
		c0.2-0.3,0.5-0.4,0.9-0.1l1.4,1c0.3,0.2,0.6,0.1,0.8-0.1l1.6-2.3c0.2-0.3,0.5-0.4,0.9-0.1l3.9,2.7c0.3,0.2,0.4,0.5,0.1,0.9
		l-1.6,2.3c-0.2,0.3-0.1,0.6,0.1,0.8l2.8,2c0.3,0.2,0.4,0.5,0.1,0.9l-2.4,3.4c-0.2,0.3-0.5,0.4-0.9,0.1l-2.8-2
		c-0.3-0.2-0.6-0.1-0.8,0.1l-2.4,3.4c-1.4,1.9-1.3,3.1,0.4,4.3l0.9,0.6c0.3,0.2,0.4,0.5,0.1,0.9l-2.4,3.4c-0.2,0.3-0.5,0.4-0.9,0.1
		l-1.2-0.8C279.7,723.1,279,719.7,282.4,715.1z"/>
	<path class="st3" d="M300,715.9c0.4,0.7,0.9,1.3,1.6,1.7c0.7,0.5,1.4,0.7,2.2,0.8c0.5,0.1,0.7,0.3,0.4,0.7l-8.9,13.6
		c-0.2,0.3-0.5,0.4-0.8,0.2l-4-2.6c-0.3-0.2-0.4-0.5-0.2-0.8l8.9-13.6C299.5,715.4,299.8,715.5,300,715.9z M301.6,711.4
		c1.1-1.7,2.9-2,4.6-0.9c1.7,1.1,2.1,2.9,1.1,4.5c-1.1,1.7-2.9,2-4.6,0.9C301,714.8,300.6,713.1,301.6,711.4z"/>
	<path class="st3" d="M314.2,729.2c-1.9-1.1-3.7-0.4-5,1.8l-4.4,7.8c-0.2,0.3-0.5,0.4-0.8,0.2l-4.2-2.3c-0.3-0.2-0.4-0.5-0.2-0.8
		l8.5-15.1c0.2-0.3,0.5-0.4,0.8-0.2l3.8,2.1c0.3,0.2,0.4,0.5,0.2,0.8l-0.1,0.2c-0.2,0.4,0,0.6,0.4,0.5c1.6-0.4,3.3,0,5.2,1
		c2,1.1,3.2,2.6,3.6,4.2c0.1,0.4,0.3,0.5,0.6,0.4c1.9-0.4,3.9,0,6.1,1.2c4.7,2.6,5.7,6.4,2.9,11.4l-4.9,8.8
		c-0.2,0.3-0.5,0.4-0.8,0.2l-4.2-2.3c-0.3-0.2-0.4-0.5-0.2-0.8l4.5-8c1.2-2.2,0.9-3.8-0.9-4.9c-1.9-1.1-3.7-0.4-5,1.8l-4.4,7.8
		c-0.2,0.3-0.5,0.4-0.8,0.2l-4.2-2.3c-0.3-0.2-0.4-0.5-0.2-0.8l4.5-8C316.3,731.9,316.1,730.2,314.2,729.2z"/>
	<path class="st3" d="M339.5,738.3c0.5,0.6,1.1,1.1,1.9,1.5c0.8,0.4,1.5,0.5,2.3,0.5c0.5,0,0.7,0.2,0.5,0.7l-7,14.7
		c-0.2,0.3-0.5,0.5-0.8,0.3l-4.3-2.1c-0.3-0.2-0.5-0.5-0.3-0.8l7-14.7C338.9,738,339.2,738,339.5,738.3z M340.5,733.7
		c0.8-1.8,2.6-2.4,4.4-1.5c1.9,0.9,2.5,2.6,1.7,4.4s-2.6,2.4-4.4,1.5C340.3,737.2,339.6,735.5,340.5,733.7z"/>
	<path class="st3" d="M341.1,757.6l1.5-3.5c0.1-0.3,0.3-0.4,0.6-0.6l10.3-3.6c0.5-0.2,0.5-0.5,0-0.7l-6.9-2.9
		c-0.3-0.1-0.5-0.5-0.3-0.8l1.6-3.9c0.1-0.3,0.5-0.5,0.8-0.3l14.6,6.1c0.3,0.1,0.5,0.5,0.3,0.8l-1.5,3.5c-0.1,0.3-0.3,0.4-0.6,0.6
		l-10.3,3.6c-0.5,0.2-0.5,0.5,0,0.7l7.1,3c0.3,0.1,0.5,0.5,0.3,0.8l-1.6,3.9c-0.1,0.3-0.5,0.5-0.8,0.3l-14.7-6.2
		C341.1,758.3,340.9,758,341.1,757.6z"/>
	<path class="st3" d="M362.4,757.4l0.2-0.6c2-5.7,6.7-7.9,12.5-5.8l0.2,0.1c5.7,2,7.7,6.5,5.7,12.4l-0.4,1.1
		c-0.1,0.4-0.4,0.5-0.8,0.4l-11.9-4.2c-0.4-0.1-0.6,0-0.7,0.4c-0.2,1.9,0.8,3,3,3.8c1.5,0.5,2.6,0.5,3.3,0.1
		c0.3-0.2,0.5-0.3,0.9-0.2l4.6,1.6c0.4,0.1,0.5,0.4,0.3,0.8c-1.8,3.4-5.7,4.4-10.5,2.7l-0.3-0.1
		C362.6,767.8,360.4,763.2,362.4,757.4z M369.5,757l6.3,2.2c0.4,0.1,0.6,0,0.7-0.4c0-1.5-0.9-2.5-2.8-3.2c-1.9-0.7-3.3-0.5-4.3,0.6
		C369,756.6,369.1,756.9,369.5,757z"/>
</g>
<g>
	<path class="st3" d="M1023.8,562.4l16.1-15.7c0.3-0.3,0.6-0.3,0.9,0l6.2,6.3c5.8,6,6.1,11.7,0.7,17l-0.7,0.7
		c-5.5,5.3-11.2,4.9-17-1.1l-6.2-6.3C1023.5,563,1023.5,562.7,1023.8,562.4z M1032.3,563.6l1.9,1.9c3.1,3.1,5.8,3.3,8.6,0.6l0.5-0.5
		c2.8-2.7,2.6-5.4-0.4-8.6l-1.9-1.9c-0.2-0.2-0.5-0.2-0.8,0l-7.8,7.7C1032.1,563.1,1032.1,563.4,1032.3,563.6z"/>
	<path class="st3" d="M1046.9,574l0.4-0.4c4.3-4.2,9.5-4.1,13.8,0.3l0.2,0.2c4.2,4.3,4,9.3-0.4,13.6l-0.8,0.8
		c-0.3,0.3-0.6,0.3-0.9,0l-8.8-9c-0.3-0.3-0.6-0.2-0.8,0.1c-1,1.6-0.6,3,1,4.7c1.1,1.1,2.1,1.6,2.9,1.5c0.4-0.1,0.6,0,0.8,0.2
		l3.4,3.5c0.3,0.3,0.3,0.6-0.1,0.9c-3.1,2.2-7,1.4-10.6-2.3l-0.2-0.2C1042.5,583.4,1042.5,578.3,1046.9,574z M1053.4,576.8l4.7,4.8
		c0.3,0.3,0.6,0.2,0.8-0.1c0.7-1.3,0.3-2.6-1.1-4.1c-1.4-1.4-2.7-1.9-4.2-1.3C1053.2,576.2,1053.2,576.6,1053.4,576.8z"/>
	<path class="st3" d="M1070.3,584.3l3,3.1c0.3,0.3,0.3,0.6,0,0.9l0,0c-0.3,0.3-0.2,0.6,0.3,0.7c1.5,0.2,3,1.1,4.5,2.5
		c4,4.1,3.8,8.9-0.5,13.1l-0.4,0.4c-4.3,4.2-9.1,4.3-13,0.3c-1.3-1.3-2.1-2.7-2.3-4.1c-0.1-0.4-0.4-0.5-0.7-0.2l-3.9,3.8
		c-0.3,0.3-0.6,0.3-0.9,0l-3.4-3.4c-0.3-0.3-0.3-0.6,0-0.9l16.5-16.1C1069.7,584,1070,584,1070.3,584.3z M1067.4,594.4l-0.2,0.2
		c-2,2-2,4-0.2,5.9c1.9,1.9,3.9,1.9,5.9,0l0.2-0.2c2-2,2.1-4,0.2-5.9C1071.5,592.5,1069.4,592.5,1067.4,594.4z"/>
	<path class="st3" d="M1073.5,613.3l16.8-16.4c0.3-0.3,0.6-0.3,0.9,0l3.4,3.4c0.3,0.3,0.3,0.6,0,0.9l-16.8,16.4
		c-0.3,0.3-0.6,0.3-0.9,0l-3.4-3.4C1073.2,613.9,1073.2,613.5,1073.5,613.3z"/>
	<path class="st3" d="M1086.1,614.2l0.4-0.4c4.3-4.2,9.5-4.1,13.9,0.4l0.3,0.3c4.4,4.5,4.4,9.7,0,13.9l-0.4,0.4
		c-4.3,4.2-9.5,4.1-13.9-0.4l-0.3-0.3C1081.8,623.7,1081.8,618.4,1086.1,614.2z M1096.2,624.4l0.3-0.3c2-1.9,2-4,0.1-5.9
		c-1.9-1.9-3.9-1.9-5.9,0l-0.3,0.3c-2,1.9-2,4-0.1,5.9C1092.2,626.3,1094.2,626.3,1096.2,624.4z"/>
	<path class="st3" d="M1097.5,639.4c0.7,0.7,1.4,1.1,2.2,1.2c0.3,0.1,0.6-0.1,0.6-0.5c1.2-6.5,3.6-11.6,7.5-15.9l0.3-0.3
		c0.3-0.3,0.6-0.3,0.9,0l3.3,3.4c0.3,0.3,0.3,0.6,0,0.9l0,0c-3.2,3.5-4.9,6.8-5.9,11.4c-0.1,0.4,0.1,0.6,0.5,0.5
		c3.8-1,7.2-3,10.9-6.2l0,0c0.3-0.3,0.6-0.2,0.9,0l3.2,3.3c0.3,0.3,0.3,0.6,0,0.9l-0.4,0.3c-9.8,8.4-22.3,10.7-27.7,5.1l-0.3-0.3
		c-0.3-0.3-0.3-0.6,0-0.9l3-2.9C1096.9,639.1,1097.2,639.1,1097.5,639.4z"/>
</g>
<g>
	<path class="st3" d="M1033.5,393.9l-16.5-15.4c-0.3-0.3-0.3-0.6,0-0.9l7.9-8.5c4.2-4.6,8.6-5,12.7-1.1c4.1,3.8,4,8.2-0.3,12.7
		l-3.7,4c-0.2,0.2-0.2,0.5,0,0.8l4.1,3.8c0.3,0.3,0.3,0.6,0,0.9l-3.4,3.7C1034.1,394.2,1033.8,394.2,1033.5,393.9z M1029.3,380.8
		l3.6-3.9c1.6-1.7,1.7-3.1,0.4-4.3c-1.3-1.2-2.7-1-4.3,0.7l-3.6,3.9c-0.2,0.2-0.2,0.5,0,0.8l3.1,2.9
		C1028.8,381,1029.1,381,1029.3,380.8z"/>
	<path class="st3" d="M1050.3,375.9l-12.7-11.8c-0.3-0.3-0.3-0.6,0-0.9l2.9-3.2c0.3-0.3,0.6-0.3,0.9,0l0.4,0.3
		c0.3,0.3,0.6,0.2,0.6-0.3c0-1.7,0.9-3.5,2.5-5.2l0.7-0.8c0.3-0.3,0.6-0.3,0.9,0l3.2,3c0.3,0.3,0.3,0.6,0,0.9l-0.9,0.9
		c-2.7,2.9-2.6,5.1,0.4,7.8l5.2,4.8c0.3,0.3,0.3,0.6,0,0.9l-3.3,3.5C1050.9,376.2,1050.6,376.2,1050.3,375.9z"/>
	<path class="st3" d="M1054.5,359.1l-0.4-0.4c-4.4-4.1-4.5-9.3-0.3-13.9l0.3-0.3c4.2-4.6,9.5-4.8,13.9-0.7l0.4,0.4
		c4.4,4.1,4.5,9.3,0.3,13.9l-0.3,0.3C1064.2,363,1058.9,363.2,1054.5,359.1z M1064.2,348.6l-0.3-0.3c-2-1.9-4.1-1.8-5.9,0.2
		c-1.8,2-1.7,4,0.3,5.9l0.3,0.3c2,1.9,4.1,1.8,5.9-0.1C1066.3,352.5,1066.2,350.5,1064.2,348.6z"/>
	<path class="st3" d="M1090.1,334.1l-2.9,3.2c-0.3,0.3-0.6,0.3-0.9,0l0,0c-0.3-0.3-0.6-0.2-0.6,0.3c-0.1,1.5-0.9,3.1-2.3,4.6
		c-3.9,4.2-8.7,4.2-13.1,0.1l-0.4-0.4c-4.4-4.1-4.7-8.9-0.9-13c1.3-1.3,2.6-2.2,4-2.5c0.4-0.1,0.5-0.4,0.2-0.7l-4.3-4
		c-0.3-0.3-0.3-0.6,0-0.9l3.3-3.5c0.3-0.3,0.6-0.3,0.9,0l17.1,16C1090.4,333.5,1090.4,333.8,1090.1,334.1z M1079.9,331.7l-0.2-0.2
		c-2-1.9-4.1-1.9-5.9,0.1c-1.9,2-1.8,4,0.3,5.9l0.2,0.2c2.1,1.9,4.1,1.9,5.9-0.1C1082,335.7,1081.9,333.6,1079.9,331.7z"/>
	<path class="st3" d="M1087.6,324.9l-7.2-6.7c-0.3-0.3-0.3-0.6,0-0.9l3.3-3.5c0.3-0.3,0.6-0.3,0.9,0l6.5,6.1c2.1,1.9,3.7,2,5.5,0.1
		c1.8-1.9,1.6-3.8-0.6-5.8l-6.3-5.8c-0.3-0.3-0.3-0.6,0-0.9l3.3-3.5c0.3-0.3,0.6-0.3,0.9,0l12.7,11.8c0.3,0.3,0.3,0.6,0,0.9
		l-2.9,3.2c-0.3,0.3-0.6,0.3-0.9,0l-0.1-0.1c-0.3-0.3-0.6-0.3-0.6,0.1c0,1.7-0.8,3.3-2.4,5C1095.9,328.7,1091.7,328.7,1087.6,324.9z
		"/>
	<path class="st3" d="M1102.7,307.5l-0.4-0.4c-4.4-4.1-4.5-9.3-0.3-13.8l0.2-0.2c3.7-3.9,7.8-4.6,11.3-2c0.3,0.2,0.4,0.6,0.1,0.9
		l-3.3,3.6c-0.2,0.2-0.5,0.3-0.9,0.2c-1-0.4-2.1,0-3.3,1.3c-1.9,2-1.7,3.8,0.4,5.8l0.3,0.3c2.1,2,3.9,2,5.8,0
		c1.2-1.3,1.6-2.4,1.1-3.4c-0.1-0.4-0.1-0.6,0.1-0.9l3.3-3.6c0.3-0.3,0.6-0.3,0.9,0c2.9,3.4,2.5,7.5-1.2,11.4l-0.2,0.2
		C1112.3,311.4,1107.1,311.6,1102.7,307.5z"/>
	<path class="st3" d="M1119.8,290.6l-3.5-3.2c-0.2-0.2-0.5-0.2-0.8,0l-1.2,1.3c-0.3,0.3-0.6,0.3-0.9,0l-3-2.8
		c-0.3-0.3-0.3-0.6,0-0.9l1.2-1.3c0.2-0.2,0.2-0.5,0-0.8l-2-1.9c-0.3-0.3-0.3-0.6,0-0.9l3.2-3.5c0.3-0.3,0.6-0.3,0.9,0l2,1.9
		c0.2,0.2,0.5,0.2,0.8,0l2.3-2.5c0.3-0.3,0.6-0.3,0.9,0l3,2.8c0.3,0.3,0.3,0.6,0,0.9l-2.3,2.5c-0.2,0.2-0.2,0.5,0,0.8l3,2.8
		c1.7,1.6,2.9,1.7,4.3,0.2l0.7-0.8c0.3-0.3,0.6-0.3,0.9,0l3.1,2.9c0.3,0.3,0.3,0.6,0,0.9l-1,1C1127.4,294.4,1124,294.6,1119.8,290.6
		z"/>
	<path class="st3" d="M1141.5,278.1l-16.5-15.4c-0.3-0.3-0.3-0.6,0-0.9l6-6.4c5.7-6.1,11.4-6.7,17-1.5l0.7,0.6
		c5.6,5.2,5.4,10.9-0.3,17l-6,6.4C1142.1,278.3,1141.8,278.3,1141.5,278.1z M1142.3,269.6l1.8-1.9c3-3.2,3.1-5.9,0.2-8.6l-0.5-0.5
		c-2.8-2.6-5.6-2.4-8.5,0.8l-1.8,1.9c-0.2,0.2-0.2,0.5,0,0.8l8,7.5C1141.8,269.8,1142.1,269.8,1142.3,269.6z"/>
	<path class="st3" d="M1143.1,245.1c-1.4-1.3-1.5-3.2-0.1-4.6c1.4-1.5,3.2-1.6,4.7-0.3c1.4,1.3,1.5,3.2,0.1,4.7
		C1146.4,246.3,1144.5,246.4,1143.1,245.1z M1147.2,247.4c0.7-0.2,1.4-0.7,2-1.3c0.6-0.6,1-1.3,1.2-2c0.2-0.5,0.4-0.6,0.8-0.2
		l11.9,11.1c0.3,0.3,0.3,0.6,0,0.9l-3.3,3.5c-0.3,0.3-0.6,0.3-0.9,0l-11.9-11.1C1146.7,247.9,1146.8,247.6,1147.2,247.4z"/>
	<path class="st3" d="M1161.9,249.3c-0.3-0.3-0.3-0.6-0.1-0.9l3.2-3.5c0.2-0.2,0.5-0.3,0.9-0.2c0.9,0.3,1.8-0.1,3.1-1.5
		c1.4-1.5,1.8-2.6,1.2-3.1c-0.5-0.5-1.1-0.2-2.5,1l-2.1,1.8c-3.6,3.1-6.8,3.5-9.4,1.1c-2.9-2.7-2.3-6.6,1.5-10.7
		c3.6-3.9,7.1-4.8,10.2-2.5c0.3,0.2,0.4,0.6,0.1,0.9l-3.3,3.5c-0.2,0.2-0.5,0.3-0.8,0.2c-0.8-0.2-1.5,0.2-2.7,1.5
		c-1.3,1.4-1.7,2.3-1.1,2.8c0.4,0.4,1.1,0.2,2.2-0.7l2.3-2c3.8-3.2,6.8-3.7,9.4-1.2c3,2.8,2.4,6.7-1.6,11
		C1168.7,250.8,1165.1,251.7,1161.9,249.3z"/>
	<path class="st3" d="M1173.3,231.7l-0.4-0.4c-4.4-4.1-4.5-9.3-0.3-13.8l0.2-0.2c3.7-3.9,7.8-4.6,11.3-2c0.3,0.2,0.4,0.6,0.1,0.9
		l-3.3,3.6c-0.2,0.2-0.5,0.3-0.9,0.2c-1-0.4-2.1,0-3.3,1.3c-1.9,2-1.7,3.8,0.4,5.8l0.3,0.3c2.1,2,3.9,2,5.8,0
		c1.2-1.3,1.6-2.4,1.1-3.4c-0.1-0.4-0.1-0.6,0.1-0.9l3.3-3.6c0.3-0.3,0.6-0.3,0.9,0c2.9,3.4,2.5,7.5-1.2,11.4l-0.2,0.2
		C1182.9,235.6,1177.7,235.8,1173.3,231.7z"/>
	<path class="st3" d="M1188,215.9l-0.4-0.4c-4.4-4.1-4.5-9.3-0.3-13.9l0.3-0.3c4.2-4.6,9.5-4.8,13.9-0.7l0.4,0.4
		c4.4,4.1,4.5,9.3,0.3,13.9l-0.3,0.3C1197.6,219.8,1192.4,220,1188,215.9z M1197.7,205.4l-0.3-0.3c-2-1.9-4.1-1.8-5.9,0.2
		c-1.8,2-1.7,4,0.3,5.9l0.3,0.3c2,1.9,4.1,1.8,5.9-0.1C1199.8,209.3,1199.7,207.3,1197.7,205.4z"/>
	<path class="st3" d="M1214.2,200.5c-7.1-1-12.9-3.1-17.1-6.6l-0.5-0.4c-0.3-0.3-0.3-0.6,0-0.9l3.2-3.4c0.3-0.3,0.5-0.3,0.9-0.1l0,0
		c2.8,2.3,6.4,4.1,10.8,5c0.4,0.1,0.6-0.1,0.5-0.5c-1.2-4.3-3.2-7.9-5.7-10.5l0,0c-0.3-0.3-0.2-0.6,0-0.9l3.2-3.4
		c0.3-0.3,0.6-0.3,0.9,0l0.4,0.4c3.8,3.9,6.3,9.6,7.8,16.6c0.1,0.3,0,0.6-0.2,0.8l-3.3,3.5C1214.8,200.4,1214.5,200.5,1214.2,200.5z
		"/>
	<path class="st3" d="M1218.2,183.5l-0.4-0.4c-4.4-4.1-4.5-9.3-0.3-13.8l0.2-0.2c4.1-4.4,9.1-4.4,13.6-0.2l0.8,0.8
		c0.3,0.3,0.3,0.6,0,0.9l-8.6,9.2c-0.3,0.3-0.2,0.6,0.1,0.8c1.6,0.9,3.1,0.5,4.7-1.2c1.1-1.1,1.5-2.1,1.4-3c-0.1-0.4,0-0.6,0.2-0.8
		l3.3-3.6c0.3-0.3,0.6-0.3,0.9,0c2.4,3,1.7,6.9-1.8,10.7l-0.2,0.2C1227.8,187.4,1222.7,187.6,1218.2,183.5z M1220.7,176.8l4.5-4.9
		c0.3-0.3,0.2-0.6-0.1-0.8c-1.3-0.6-2.7-0.1-4,1.3c-1.4,1.5-1.8,2.8-1.2,4.2C1220.1,177.1,1220.4,177.1,1220.7,176.8z"/>
	<path class="st3" d="M1240.1,172.4l-12.7-11.8c-0.3-0.3-0.3-0.6,0-0.9l2.9-3.2c0.3-0.3,0.6-0.3,0.9,0l0.4,0.3
		c0.3,0.3,0.6,0.2,0.6-0.3c0-1.7,0.9-3.5,2.5-5.2l0.7-0.8c0.3-0.3,0.6-0.3,0.9,0l3.2,3c0.3,0.3,0.3,0.6,0,0.9l-0.9,0.9
		c-2.7,2.9-2.6,5.1,0.4,7.8l5.2,4.8c0.3,0.3,0.3,0.6,0,0.9l-3.3,3.5C1240.7,172.6,1240.3,172.6,1240.1,172.4z"/>
	<path class="st3" d="M1254.1,158.9c0.6-0.8,1-1.5,1.1-2.3c0-0.3-0.1-0.5-0.5-0.6c-6.6-0.9-11.7-3.1-16.2-6.7l-0.3-0.3
		c-0.3-0.3-0.3-0.6-0.1-0.9l3.2-3.4c0.3-0.3,0.6-0.3,0.9-0.1l0,0c3.6,3,7,4.6,11.7,5.3c0.4,0.1,0.6-0.2,0.5-0.6
		c-1.2-3.8-3.4-7.1-6.7-10.6l0,0c-0.3-0.3-0.3-0.6,0-0.9l3.2-3.4c0.3-0.3,0.6-0.3,0.9,0l0.3,0.3c8.9,9.3,11.7,21.7,6.4,27.5
		l-0.3,0.3c-0.3,0.3-0.6,0.3-0.9,0l-3.1-2.9C1253.9,159.5,1253.8,159.2,1254.1,158.9z"/>
</g>
<g>
	<path class="st3" d="M222.6,883v-22.5c0-0.4,0.2-0.6,0.6-0.6h5c0.4,0,0.6,0.2,0.6,0.6V883c0,0.4-0.2,0.6-0.6,0.6h-5
		C222.8,883.6,222.6,883.3,222.6,883z"/>
	<path class="st3" d="M243.5,870c-2.7,0-4.1,1.5-4.1,4.4v8.5c0,0.4-0.2,0.6-0.6,0.6h-4.8c-0.4,0-0.6-0.2-0.6-0.6v-17.4
		c0-0.4,0.2-0.6,0.6-0.6h4.3c0.4,0,0.6,0.2,0.6,0.6v0.2c0,0.5,0.3,0.6,0.6,0.3c1.3-1.1,3.1-1.7,5.4-1.7c5.4,0,8.1,2.9,8.1,8.7v9.8
		c0,0.4-0.2,0.6-0.6,0.6h-4.8c-0.4,0-0.6-0.2-0.6-0.6v-8.8C247.1,871.3,246,870,243.5,870z"/>
	<path class="st3" d="M255.5,869.7v-4.1c0-0.4,0.2-0.6,0.6-0.6h1.9c0.3,0,0.5-0.2,0.6-0.5c0.6-4.1,3-5.8,8.2-5.8h1.9
		c0.4,0,0.6,0.2,0.6,0.6v3.4c0,0.4-0.2,0.6-0.6,0.6h-1.7c-1.8,0-2.6,0.4-2.8,1.5c-0.1,0.4,0.2,0.6,0.5,0.6h3.9
		c0.4,0,0.6,0.2,0.6,0.6v3.6c0,0.4-0.2,0.6-0.6,0.6H265c-0.3,0-0.5,0.2-0.5,0.5v12.2c0,0.4-0.2,0.6-0.6,0.6h-4.8
		c-0.4,0-0.6-0.2-0.6-0.6v-12.2c0-0.3-0.2-0.5-0.5-0.5h-1.8C255.8,870.3,255.5,870.1,255.5,869.7z"/>
	<path class="st3" d="M272.6,883v-23.4c0-0.4,0.2-0.6,0.6-0.6h4.8c0.4,0,0.6,0.2,0.6,0.6V883c0,0.4-0.2,0.6-0.6,0.6h-4.8
		C272.8,883.6,272.6,883.3,272.6,883z"/>
	<path class="st3" d="M282.1,874.6V874c0-6,3.7-9.7,10-9.7h0.4c6.2,0,10,3.6,10,9.7v0.6c0,6-3.7,9.7-10,9.7H292
		C285.8,884.2,282.1,880.6,282.1,874.6z M296.4,874.5v-0.4c0-2.8-1.4-4.2-4.2-4.2c-2.7,0-4.1,1.5-4.1,4.2v0.4c0,2.8,1.4,4.2,4.1,4.2
		C294.9,878.7,296.4,877.2,296.4,874.5z"/>
	<path class="st3" d="M310.1,883.2c-3.6-5.9-5.4-11.5-5.7-17l0-0.6c0-0.4,0.2-0.6,0.6-0.6h4.6c0.4,0,0.6,0.2,0.6,0.6v0
		c0.2,4.3,1.2,7.4,2.7,10.6c0.2,0.4,0.5,0.4,0.7,0c1.6-3.2,2.5-6.3,2.7-10.6v0c0-0.4,0.3-0.6,0.6-0.6h4.1c0.4,0,0.6,0.2,0.6,0.6v0
		c0.2,4.3,1.2,7.4,2.7,10.6c0.2,0.4,0.5,0.4,0.7,0c1.6-3.2,2.5-6.3,2.7-10.6v0c0-0.4,0.3-0.6,0.6-0.6h4.6c0.4,0,0.6,0.2,0.6,0.6
		l0,0.6c-0.3,5.4-2.1,11.1-5.7,17c-0.2,0.3-0.4,0.4-0.7,0.4H323c-0.3,0-0.5-0.1-0.7-0.4c-1.2-2.1-2.1-4.1-2.9-6.2
		c-0.2-0.4-0.5-0.4-0.7,0c-0.7,2-1.7,4.1-2.9,6.2c-0.2,0.3-0.4,0.4-0.7,0.4h-4.3C310.5,883.6,310.3,883.4,310.1,883.2z"/>
</g>
<g>
	<path class="st3" d="M604.2,801.6c-7-4.2-12.5-10.2-15.6-17.1l-0.4-1c-0.1-0.3,0-0.6,0.3-0.8l4.7-1.9c0.3-0.1,0.7,0,0.8,0.3
		l0.1,0.2c2.5,5.5,6.4,10.2,10.6,13.1c0.3,0.2,0.6,0.1,0.7-0.3c1-5,0.7-11-1.3-16.8l-0.1-0.2c-0.1-0.3,0-0.7,0.4-0.8l4.6-1.8
		c0.3-0.1,0.6,0,0.8,0.4l0.4,1c2.5,7.2,2.6,15.3,0.4,23.2c-0.1,0.3-0.3,0.5-0.6,0.6l-4.8,1.9C604.7,801.8,604.4,801.8,604.2,801.6z"
		/>
	<path class="st3" d="M618.3,790.6c-1.9-4,0.6-7.5,8.2-11.2c0.3-0.2,0.4-0.5,0.2-0.7c-0.8-1-1.9-1-3.6-0.2c-1.4,0.7-2.1,1.4-2.2,2.2
		c0,0.3-0.1,0.6-0.5,0.7l-4.3,2.1c-0.4,0.2-0.7,0.1-0.8-0.3c-1.1-3.5,1-7,5.5-9.2l0.3-0.1c5.4-2.5,9.5-1.1,12,4.3l4.2,8.7
		c0.2,0.3,0,0.7-0.3,0.8l-3.9,1.9c-0.3,0.2-0.7,0-0.8-0.3l0-0.1c-0.2-0.4-0.5-0.5-0.6-0.2c-0.7,1.5-2.3,3.1-4.4,4.1
		C623.4,794.8,619.9,793.9,618.3,790.6z M629,783.4c-0.1-0.4-0.4-0.4-0.7-0.3c-4.1,2.1-5.3,3.3-4.7,4.6c0.4,0.9,1.4,1,2.7,0.4
		C628.4,787.1,629.5,785.1,629,783.4z"/>
	<path class="st3" d="M641.8,784.2l-11.2-20.6c-0.2-0.3-0.1-0.7,0.2-0.8l4.2-2.3c0.3-0.2,0.7-0.1,0.8,0.2l11.2,20.6
		c0.2,0.3,0.1,0.7-0.2,0.8l-4.2,2.3C642.3,784.7,642,784.6,641.8,784.2z"/>
	<path class="st3" d="M647.7,772.5l-5.2-8.3c-0.2-0.3-0.1-0.6,0.2-0.8l4.1-2.5c0.3-0.2,0.6-0.1,0.8,0.2l4.7,7.5
		c1.5,2.4,3.1,2.9,5.3,1.5c2.2-1.4,2.5-3.2,0.9-5.8l-4.5-7.2c-0.2-0.3-0.1-0.6,0.2-0.8l4.1-2.5c0.3-0.2,0.6-0.1,0.8,0.2l9.2,14.7
		c0.2,0.3,0.1,0.6-0.2,0.8l-3.7,2.3c-0.3,0.2-0.6,0.1-0.8-0.2l-0.1-0.1c-0.3-0.4-0.5-0.4-0.6-0.1c-0.4,1.7-1.6,3-3.6,4.2
		C654.7,778.4,650.7,777.3,647.7,772.5z"/>
	<path class="st3" d="M667.1,759.2l-0.4-0.5c-3.6-4.8-2.8-9.9,2.2-13.6l0.2-0.1c4.8-3.6,9.7-2.7,13.4,2.2l0.7,0.9
		c0.2,0.3,0.2,0.6-0.1,0.9l-10.1,7.5c-0.3,0.2-0.3,0.5,0,0.8c1.5,1.2,2.9,1,4.8-0.4c1.3-0.9,1.9-1.8,1.9-2.7c0-0.4,0.1-0.6,0.3-0.8
		l3.9-2.9c0.3-0.2,0.7-0.2,0.9,0.2c1.8,3.4,0.4,7.1-3.7,10.2l-0.3,0.2C675.8,764.8,670.7,764.1,667.1,759.2z M670.7,753.1l5.3-4
		c0.3-0.2,0.3-0.5,0-0.8c-1.2-0.8-2.6-0.6-4.2,0.6c-1.6,1.2-2.2,2.5-1.9,4C670.1,753.3,670.4,753.3,670.7,753.1z"/>
	<path class="st3" d="M698.5,745l-15.1-16.7c-0.3-0.3-0.2-0.6,0-0.9l8.6-7.8c4.6-4.2,9-4.2,12.7-0.1c3.7,4.1,3.3,8.5-1.4,12.7
		l-4.1,3.7c-0.3,0.2-0.3,0.5,0,0.8l3.8,4.2c0.3,0.3,0.2,0.6,0,0.9l-3.7,3.4C699.1,745.3,698.8,745.3,698.5,745z M695.5,731.5
		l3.9-3.6c1.7-1.6,2-2.9,0.8-4.2c-1.2-1.3-2.6-1.2-4.3,0.3l-3.9,3.6c-0.3,0.2-0.3,0.5,0,0.8l2.8,3.1
		C695,731.8,695.3,731.8,695.5,731.5z"/>
	<path class="st3" d="M716.7,728.5l-11.9-12.6c-0.3-0.3-0.2-0.6,0-0.9l3.1-3c0.3-0.3,0.6-0.2,0.9,0l0.3,0.4c0.3,0.3,0.6,0.2,0.7-0.2
		c0.1-1.7,1.1-3.4,2.8-5l0.8-0.7c0.3-0.3,0.6-0.2,0.9,0l3,3.2c0.3,0.3,0.2,0.6,0,0.9l-0.9,0.9c-2.9,2.7-2.9,4.9-0.1,7.8l4.8,5.2
		c0.3,0.3,0.2,0.6,0,0.9l-3.5,3.3C717.2,728.8,716.9,728.8,716.7,728.5z"/>
	<path class="st3" d="M721.8,712.2l-0.4-0.4c-4.2-4.3-4-9.6,0.4-13.9l0.3-0.3c4.5-4.3,9.7-4.3,13.9,0l0.4,0.4
		c4.2,4.3,4,9.6-0.4,13.9l-0.3,0.3C731.2,716.5,726,716.5,721.8,712.2z M732,702.1l-0.3-0.3c-1.9-2-4-2-5.9-0.1
		c-1.9,1.9-1.9,3.9,0,5.9l0.3,0.3c1.9,2,4,2,5.9,0.2C733.9,706.2,733.9,704.1,732,702.1z"/>
	<path class="st3" d="M732.4,688.5l3.1-3.1c0.3-0.3,0.6-0.3,0.9,0l0,0c0.3,0.3,0.6,0.2,0.7-0.3c0.2-1.5,1-3.1,2.5-4.5
		c4-4,8.9-3.9,13.1,0.4l0.4,0.4c4.3,4.3,4.4,9,0.4,13c-1.3,1.3-2.7,2.1-4.1,2.4c-0.4,0.1-0.5,0.4-0.2,0.7l3.9,3.9
		c0.3,0.3,0.3,0.6,0,0.9l-3.4,3.4c-0.3,0.3-0.6,0.3-0.9,0l-16.3-16.3C732.1,689.1,732.1,688.8,732.4,688.5z M742.6,691.2l0.2,0.2
		c2,2,4,2,5.9,0.1c1.9-1.9,1.9-3.9-0.1-5.9l-0.2-0.2c-2-2-4-2-5.9-0.1C740.6,687.2,740.6,689.3,742.6,691.2z"/>
	<path class="st3" d="M754.8,679.7l-0.4-0.4c-4.3-4.2-4.3-9.4,0.1-13.9l0.3-0.3c4.4-4.5,9.6-4.6,13.9-0.4l0.4,0.4
		c4.3,4.2,4.3,9.4-0.1,13.9l-0.3,0.3C764.3,683.8,759.1,683.9,754.8,679.7z M764.7,669.4l-0.3-0.3c-2-1.9-4-1.9-5.9,0
		c-1.9,1.9-1.8,4,0.1,5.9l0.3,0.3c2,1.9,4,1.9,5.9,0C766.8,673.4,766.7,671.3,764.7,669.4z"/>
	<path class="st3" d="M773.1,666.1c-0.3-0.3-0.3-0.6,0-0.9l3.3-3.4c0.2-0.2,0.5-0.3,0.9-0.2c0.9,0.3,1.8-0.1,3.1-1.5
		c1.5-1.5,1.9-2.5,1.3-3.1c-0.5-0.5-1.1-0.2-2.5,0.9l-2.1,1.7c-3.7,3.1-6.9,3.4-9.4,1c-2.8-2.7-2.2-6.6,1.7-10.7
		c3.7-3.9,7.2-4.6,10.3-2.3c0.3,0.2,0.3,0.6,0.1,0.9l-3.3,3.5c-0.2,0.2-0.5,0.3-0.8,0.2c-0.8-0.2-1.5,0.2-2.7,1.4
		c-1.3,1.4-1.7,2.3-1.2,2.8c0.4,0.4,1.1,0.2,2.2-0.6l2.4-1.9c3.9-3.2,6.8-3.6,9.4-1.1c3,2.9,2.3,6.7-1.8,11
		C779.9,667.8,776.2,668.6,773.1,666.1z"/>
	<path class="st3" d="M775.8,639.4c-1.4-1.4-1.5-3.2,0-4.6c1.4-1.5,3.2-1.6,4.7-0.2c1.4,1.4,1.5,3.2,0,4.7
		C779,640.7,777.2,640.7,775.8,639.4z M779.9,641.8c0.7-0.2,1.4-0.7,2-1.3c0.6-0.6,1-1.3,1.2-2c0.2-0.5,0.4-0.6,0.8-0.2l11.8,11.3
		c0.3,0.3,0.3,0.6,0,0.9l-3.3,3.5c-0.3,0.3-0.6,0.3-0.9,0l-11.8-11.3C779.4,642.2,779.5,641.9,779.9,641.8z"/>
	<path class="st3" d="M794.4,640.1l-3.4-3.2c-0.2-0.2-0.5-0.2-0.8,0l-1.2,1.3c-0.3,0.3-0.6,0.3-0.9,0l-3-2.8c-0.3-0.3-0.3-0.6,0-0.9
		l1.2-1.3c0.2-0.2,0.2-0.5,0-0.8l-2-1.9c-0.3-0.3-0.3-0.6,0-0.9l3.2-3.4c0.3-0.3,0.6-0.3,0.9,0l2,1.9c0.2,0.2,0.5,0.2,0.8,0l2.3-2.5
		c0.3-0.3,0.6-0.3,0.9,0l3,2.8c0.3,0.3,0.3,0.6,0,0.9l-2.3,2.5c-0.2,0.2-0.2,0.5,0,0.8l3,2.8c1.7,1.6,2.9,1.7,4.3,0.2l0.7-0.8
		c0.3-0.3,0.6-0.3,0.9,0l3,2.9c0.3,0.3,0.3,0.6,0,0.9l-1,1C801.9,643.9,798.5,644.1,794.4,640.1z"/>
	<path class="st3" d="M793.7,620.4c-1.4-1.3-1.5-3.2-0.1-4.6c1.4-1.5,3.2-1.6,4.7-0.3s1.5,3.2,0.1,4.7
		C797,621.7,795.2,621.7,793.7,620.4z M797.8,622.8c0.7-0.2,1.4-0.7,2-1.3c0.6-0.6,1-1.3,1.2-2c0.2-0.5,0.4-0.6,0.8-0.2l11.9,11.1
		c0.3,0.3,0.3,0.6,0,0.9l-3.3,3.5c-0.3,0.3-0.6,0.3-0.9,0l-11.9-11.1C797.3,623.2,797.4,622.9,797.8,622.8z"/>
	<path class="st3" d="M809.9,622.1l-0.5-0.4c-4.4-4.1-4.6-9.3-0.3-13.9l0.3-0.3c4.2-4.6,9.4-4.9,13.9-0.8l0.5,0.4
		c4.4,4.1,4.6,9.3,0.3,13.9l-0.3,0.3C819.5,625.9,814.3,626.2,809.9,622.1z M819.5,611.5l-0.3-0.3c-2-1.9-4.1-1.8-5.9,0.2
		c-1.8,2-1.7,4,0.3,5.9l0.3,0.3c2,1.9,4.1,1.8,5.9-0.2C821.6,615.4,821.5,613.4,819.5,611.5z"/>
	<path class="st3" d="M829.3,594.1c-1.8,2-1.6,4,0.5,6l6.3,5.8c0.3,0.3,0.3,0.6,0,0.9l-3.2,3.5c-0.3,0.3-0.6,0.3-0.9,0l-12.8-11.7
		c-0.3-0.3-0.3-0.6,0-0.9l2.9-3.2c0.3-0.3,0.6-0.3,0.9,0l0.2,0.2c0.4,0.3,0.6,0.2,0.6-0.3c0-1.7,0.8-3.4,2.4-5.1
		c3.7-4,7.6-4.1,11.9-0.1l7.3,6.6c0.3,0.3,0.3,0.6,0,0.9l-3.2,3.5c-0.3,0.3-0.6,0.3-0.9,0l-6.5-5.9
		C832.7,592.4,831,592.3,829.3,594.1z"/>
</g>
<g>
	<path class="st1" d="M797.7,452.3c-31.4-33.9-155.5-167.9-163-175l-0.1-0.1l0,0c-45.2-42.3-105.9-68.3-172.6-68.3
		c-120.8,0-221.7,84.9-246.5,198.2l11.1-9.4c28-103.9,122.8-180.3,235.5-180.3c64.7,0,123.5,25.2,167.2,66.4l22.8,24.6
		c31.2,38.7,130,140.3,144.8,155.5L797.7,452.3z"/>
</g>
<g>
	<path class="st3" d="M1378.6,821.5l3.1-22.3c0.1-0.4,0.3-0.6,0.7-0.5l8.7,1.2c8.3,1.2,12,5.5,11,13l-0.1,0.9
		c-1.1,7.6-5.9,10.7-14.1,9.5l-8.7-1.2C1378.8,822.1,1378.6,821.8,1378.6,821.5z M1386,817.2l2.6,0.4c4.4,0.6,6.6-0.9,7.2-4.7
		l0.1-0.7c0.5-3.8-1.2-5.9-5.6-6.5l-2.6-0.4c-0.3,0-0.6,0.1-0.6,0.5l-1.5,10.9C1385.5,816.9,1385.7,817.2,1386,817.2z"/>
	<path class="st3" d="M1404.4,816.4l0-0.6c0.4-6,4.4-9.4,10.5-8.9l0.2,0c6,0.4,9.2,4.3,8.7,10.4l-0.1,1.2c0,0.4-0.3,0.6-0.7,0.6
		l-12.6-0.9c-0.4,0-0.6,0.2-0.5,0.6c0.3,1.9,1.6,2.7,3.9,2.9c1.6,0.1,2.6-0.2,3.2-0.8c0.2-0.3,0.4-0.4,0.8-0.4l4.9,0.3
		c0.4,0,0.6,0.3,0.5,0.7c-0.8,3.7-4.3,5.7-9.4,5.3l-0.3,0C1407.4,826.4,1404,822.5,1404.4,816.4z M1411.1,814.2l6.7,0.5
		c0.4,0,0.6-0.2,0.5-0.6c-0.4-1.4-1.6-2.2-3.6-2.3s-3.3,0.4-4,1.8C1410.5,813.9,1410.7,814.1,1411.1,814.2z"/>
	<path class="st3" d="M1433,826.6c-4.1-5.9-6.5-11.6-6.7-17l0-0.6c0-0.4,0.2-0.6,0.6-0.6l4.7,0c0.4,0,0.6,0.2,0.6,0.6v0
		c0.2,3.6,1.3,7.5,3.7,11.4c0.2,0.4,0.5,0.4,0.8,0c2.4-3.8,3.6-7.7,3.8-11.3l0,0c0-0.4,0.3-0.6,0.6-0.6l4.6,0c0.4,0,0.6,0.2,0.6,0.6
		l0,0.6c-0.3,5.4-2.8,11.1-6.9,16.9c-0.2,0.3-0.4,0.4-0.8,0.4l-4.8,0C1433.5,826.9,1433.2,826.8,1433,826.6z"/>
	<path class="st3" d="M1448.6,817.9l0-0.6c-0.3-6,3.2-9.8,9.3-10.2l0.2,0c6-0.3,9.6,3.1,10,9.3l0.1,1.2c0,0.4-0.2,0.6-0.6,0.6
		l-12.6,0.7c-0.4,0-0.6,0.3-0.4,0.6c0.5,1.8,1.9,2.5,4.2,2.4c1.6-0.1,2.6-0.5,3.1-1.2c0.2-0.3,0.4-0.5,0.7-0.5l4.9-0.3
		c0.4,0,0.7,0.2,0.6,0.6c-0.4,3.8-3.6,6.2-8.7,6.5l-0.3,0C1452.8,827.4,1449,824.1,1448.6,817.9z M1455,814.8l6.7-0.4
		c0.4,0,0.6-0.3,0.4-0.6c-0.6-1.4-1.8-1.9-3.8-1.8c-2,0.1-3.2,0.8-3.8,2.3C1454.4,814.6,1454.6,814.9,1455,814.8z"/>
	<path class="st3" d="M1472.7,824.7l-2.4-23.3c0-0.4,0.2-0.6,0.5-0.7l4.8-0.5c0.4,0,0.6,0.2,0.7,0.5l2.4,23.3c0,0.4-0.2,0.6-0.5,0.7
		l-4.8,0.5C1473,825.3,1472.7,825.1,1472.7,824.7z"/>
	<path class="st3" d="M1481.6,815.5l-0.1-0.6c-0.9-6,2.2-10.1,8.4-11.1l0.4-0.1c6.2-0.9,10.4,2.1,11.3,8.1l0.1,0.6
		c0.9,6-2.2,10.1-8.4,11.1l-0.4,0.1C1486.7,824.5,1482.5,821.4,1481.6,815.5z M1495.7,813.2l-0.1-0.4c-0.4-2.7-2-4-4.7-3.5
		c-2.7,0.4-3.9,2.1-3.4,4.8l0.1,0.4c0.4,2.7,2,4,4.7,3.6C1494.9,817.6,1496.1,816,1495.7,813.2z"/>
	<path class="st3" d="M1504,802.2l4.2-0.9c0.4-0.1,0.7,0.1,0.7,0.5l0,0.1c0.1,0.4,0.4,0.5,0.7,0.1c1-1.2,2.5-2,4.5-2.5
		c5.6-1.2,9.6,1.5,10.9,7.3l0.1,0.5c1.3,5.9-1.1,10-6.7,11.2c-1.8,0.4-3.4,0.3-4.7-0.2c-0.4-0.2-0.7,0-0.6,0.5l1.2,5.4
		c0.1,0.4-0.1,0.6-0.5,0.7l-4.7,1c-0.4,0.1-0.7-0.1-0.7-0.5l-5-22.5C1503.4,802.6,1503.6,802.3,1504,802.2z M1511.1,810l0.1,0.3
		c0.6,2.7,2.3,3.8,4.9,3.3c2.7-0.6,3.7-2.3,3.1-5l-0.1-0.3c-0.6-2.8-2.3-3.9-4.9-3.3C1511.6,805.5,1510.5,807.2,1511.1,810z"/>
	<path class="st3" d="M1538.5,800.5c0.2-0.3,0.1-0.5-0.2-0.7c-1.3-0.7-2.3-2-2.9-3.7c-1.4-4.2,1.2-8.1,6.4-9.8
		c4.9-1.6,8.5-0.3,10.4,3.8c0.2,0.4,0,0.7-0.4,0.8l-4.6,1.5c-0.3,0.1-0.6,0-0.8-0.3c-0.6-0.8-1.7-0.9-3.1-0.5
		c-1.8,0.6-2.6,1.7-2.2,2.9c0.4,1.3,1.7,1.7,3.6,1.1l11.1-3.6c0.4-0.1,0.7,0,0.8,0.4l1.2,3.8c0.1,0.4,0,0.7-0.4,0.8l-2,0.7
		c-0.3,0.1-0.5,0.4-0.3,0.7l0.2,0.6c0.6,1.9,1.6,2.5,3.4,2l0.1,0c0.4-0.1,0.7,0,0.8,0.4l1.3,4c0.1,0.4,0,0.7-0.4,0.8l-0.5,0.2
		c-2.5,0.8-4.4,0.8-5.8-0.1c-0.3-0.2-0.6-0.1-0.7,0.2c-0.9,1.9-2.7,3.3-5.2,4.1c-4.7,1.5-8.9-0.2-10.2-4.3
		C1537.3,804.2,1537.5,801.9,1538.5,800.5z M1543.5,803.9c0.4,1.4,1.7,1.8,3.5,1.2c2.4-0.8,3.5-2.7,2.8-4.9l0-0.1
		c-0.1-0.3-0.4-0.5-0.7-0.3l-2.9,1C1543.9,801.4,1543.1,802.5,1543.5,803.9z"/>
	<path class="st3" d="M1574.3,800.1l-9.1-20.6c-0.2-0.3,0-0.7,0.3-0.8l8.1-3.5c7.6-3.4,13.1-1.6,16.2,5.3l0.4,0.9
		c3.1,7,0.6,12.2-7,15.5l-8.1,3.5C1574.7,800.5,1574.4,800.4,1574.3,800.1z M1578.4,792.5l2.4-1.1c4-1.8,5.2-4.2,3.6-7.8l-0.3-0.6
		c-1.6-3.6-4.2-4.4-8.2-2.6l-2.4,1.1c-0.3,0.1-0.4,0.4-0.3,0.7l4.4,10C1577.8,792.6,1578,792.7,1578.4,792.5z"/>
	<path class="st3" d="M1593.6,782.2l-0.3-0.5c-2.8-5.3-1.2-10.3,4.3-13.1l0.2-0.1c5.3-2.8,10-1.2,12.9,4.3l0.5,1
		c0.2,0.3,0.1,0.7-0.3,0.8l-11.2,5.8c-0.3,0.2-0.4,0.5-0.1,0.8c1.2,1.4,2.7,1.5,4.8,0.4c1.4-0.7,2.2-1.5,2.3-2.4
		c0-0.4,0.2-0.6,0.5-0.7l4.3-2.3c0.4-0.2,0.7-0.1,0.8,0.3c1.2,3.6-0.7,7.1-5.2,9.5l-0.3,0.2C1601.3,789.1,1596.4,787.6,1593.6,782.2
		z M1598.1,776.8l5.9-3.1c0.3-0.2,0.4-0.5,0.1-0.8c-1.1-1-2.5-1-4.2-0.1s-2.6,2.1-2.5,3.6C1597.5,776.8,1597.8,776.9,1598.1,776.8z"
		/>
	<path class="st3" d="M1618.3,778.4l-11.8-20.2c-0.2-0.3-0.1-0.6,0.2-0.8l4.1-2.4c0.3-0.2,0.6-0.1,0.8,0.2l11.8,20.2
		c0.2,0.3,0.1,0.6-0.2,0.8l-4.1,2.4C1618.9,778.8,1618.5,778.8,1618.3,778.4z"/>
	<path class="st3" d="M1616.2,754.9c-1-1.7-0.6-3.4,1.1-4.5c1.8-1.1,3.5-0.7,4.6,0.9c1.1,1.7,0.6,3.4-1.1,4.5
		C1619,757,1617.2,756.6,1616.2,754.9z M1619.5,758.3c0.8,0,1.5-0.3,2.2-0.8c0.7-0.5,1.3-1,1.6-1.7c0.3-0.4,0.6-0.5,0.8,0l8.6,13.8
		c0.2,0.3,0.1,0.6-0.2,0.8l-4.1,2.6c-0.3,0.2-0.6,0.1-0.8-0.2l-8.6-13.8C1618.9,758.5,1619.1,758.3,1619.5,758.3z"/>
	<path class="st3" d="M1641.5,764.2c-6.8-2.4-12-5.8-15.3-10.1l-0.4-0.5c-0.3-0.3-0.2-0.6,0.2-0.9l3.9-2.7c0.3-0.2,0.6-0.2,0.9,0.1
		l0,0c2.2,2.8,5.4,5.4,9.5,7.2c0.4,0.2,0.7,0,0.6-0.4c-0.3-4.5-1.5-8.4-3.4-11.4l0,0c-0.2-0.4-0.1-0.6,0.2-0.8l3.8-2.6
		c0.3-0.2,0.6-0.2,0.9,0.2l0.3,0.5c2.8,4.6,4.1,10.7,4.1,17.9c0,0.3-0.2,0.6-0.4,0.7l-4,2.8C1642,764.3,1641.8,764.4,1641.5,764.2z"
		/>
	<path class="st3" d="M1649.3,748.2l-0.4-0.5c-3.7-4.7-3.1-9.9,1.8-13.7l0.2-0.1c4.7-3.7,9.6-3,13.5,1.8l0.7,0.9
		c0.2,0.3,0.2,0.6-0.1,0.9l-9.9,7.8c-0.3,0.2-0.3,0.5,0,0.8c1.5,1.2,3,0.9,4.8-0.5c1.2-1,1.8-1.9,1.8-2.7c0-0.4,0-0.6,0.3-0.8l3.8-3
		c0.3-0.3,0.7-0.2,0.9,0.1c1.9,3.3,0.7,7.1-3.4,10.3l-0.3,0.2C1658.1,753.5,1653.1,753,1649.3,748.2z M1652.7,742l5.2-4.1
		c0.3-0.2,0.3-0.5,0-0.8c-1.2-0.8-2.6-0.5-4.2,0.7c-1.6,1.2-2.2,2.5-1.8,4C1652.1,742.2,1652.4,742.2,1652.7,742z"/>
	<path class="st3" d="M1673,739.8l-11.5-13c-0.2-0.3-0.2-0.6,0.1-0.9l3.2-2.9c0.3-0.2,0.6-0.2,0.9,0.1l0.3,0.4
		c0.3,0.4,0.6,0.3,0.7-0.2c0.2-1.7,1.2-3.4,3-5l0.8-0.7c0.3-0.2,0.6-0.2,0.9,0.1l2.9,3.3c0.2,0.3,0.2,0.6-0.1,0.9l-1,0.9
		c-3,2.6-3,4.8-0.4,7.8l4.7,5.3c0.2,0.3,0.2,0.6-0.1,0.9l-3.6,3.2C1673.6,740.1,1673.3,740.1,1673,739.8z"/>
</g>
</svg>
